<?xml version="1.0" standalone="no"?>
<!DOCTYPE svg PUBLIC "-//W3C//DTD SVG 1.1//EN" "http://www.w3.org/Graphics/SVG/1.1/DTD/svg11.dtd" >
<svg xmlns="http://www.w3.org/2000/svg" xmlns:xlink="http://www.w3.org/1999/xlink" version="1.1">
<metadata></metadata>
<defs>
<font id="bauhausc_lightregular" horiz-adv-x="1138" >
<font-face units-per-em="2048" ascent="1552" descent="-496" />
<missing-glyph horiz-adv-x="477" />
<glyph horiz-adv-x="0" />
<glyph unicode="&#xd;" horiz-adv-x="477" />
<glyph unicode=" "  horiz-adv-x="477" />
<glyph unicode="&#x09;" horiz-adv-x="477" />
<glyph unicode="&#xa0;" horiz-adv-x="477" />
<glyph unicode="!" horiz-adv-x="454" d="M139 66q0 33 22.5 55t55.5 22t55.5 -22.5t22.5 -54.5q0 -33 -22.5 -55.5t-55.5 -22.5t-55.5 22.5t-22.5 55.5zM178 283v1175h78v-1175h-78z" />
<glyph unicode="&#x22;" horiz-adv-x="681" d="M201 971v463h78v-463h-78zM406 971v463h77v-463h-77z" />
<glyph unicode="#" horiz-adv-x="1024" d="M63 428v74h216l38 299h-202v76h213l57 417h78l-57 -417h274l59 417h78l-59 -417h203v-76h-213l-39 -299h200v-74h-213l-59 -428h-76l57 428h-274l-59 -428h-78l59 428h-203zM356 502h275l39 299h-275z" />
<glyph unicode="$" d="M217 205v78h358v526q-90 31 -157.5 59.5t-111.5 65.5t-66.5 90t-22.5 133q0 102 40 158.5t94.5 82t107.5 31t80 5.5h36v135h82v-135h308v-78h-308v-477q188 -51 286.5 -134t98.5 -229q0 -84 -29.5 -143.5t-80.5 -96t-116.5 -54t-139.5 -17.5h-19v-205h-82v205h-358z M299 1155q0 -59 17.5 -98t52 -67.5t87 -50t119.5 -44.5v461h-26q-35 0 -78 -4t-82 -22.5t-64.5 -59.5t-25.5 -115zM657 283h17q141 0 214 60t73 165q0 59 -21.5 102t-60.5 76t-95.5 57.5t-126.5 49.5v-510z" />
<glyph unicode="%" horiz-adv-x="1820" d="M141 1149q0 61 24.5 117.5t66.5 97.5t99 65.5t120 24.5t119.5 -24.5t98.5 -65.5t66.5 -97.5t24.5 -117.5t-24.5 -117.5t-66.5 -97.5t-98.5 -65.5t-119.5 -24.5t-120 24.5t-99 65.5t-66.5 97t-24.5 118zM223 1149q0 -45 17.5 -86t48 -73t71.5 -50t91 -18q49 0 90 18 t71.5 50t48 73t17.5 86t-17.5 86t-48 72.5t-71.5 50t-90 18.5t-90.5 -18.5t-72 -50t-48 -72.5t-17.5 -86zM383 0l915 1434h78l-917 -1434h-76zM1001 285q0 61 25 117.5t67 97.5t98.5 65.5t119.5 24.5t119.5 -24.5t98.5 -65.5t66.5 -97.5t24.5 -117.5t-24.5 -117.5 t-66.5 -97.5t-98.5 -65.5t-119.5 -24.5t-119.5 24.5t-98.5 65.5t-67 97t-25 118zM1083 285q0 -45 17.5 -86t48.5 -73t72 -50.5t90 -18.5t90 18.5t71.5 50.5t48 73t17.5 86t-17.5 86t-48 72.5t-71.5 50t-90 18.5t-90 -18.5t-72 -50t-48.5 -72.5t-17.5 -86z" />
<glyph unicode="&#x26;" horiz-adv-x="1366" d="M53 535q0 61 13.5 126.5t46 130t90 126t143.5 110.5q-47 53 -83 115.5t-36 132.5q0 57 28 89t67.5 47t86 18.5t85.5 3.5h530v-74h-530h-66t-59.5 -7t-43 -24.5t-16.5 -54.5q0 -29 12.5 -59.5t33 -62.5t45 -61.5t46.5 -56.5l678 -762q29 41 51.5 103.5t22.5 159.5 q0 80 -18.5 141t-46 107t-60.5 80t-61 57l49 57q70 -53 113 -111.5t66.5 -117t31.5 -113.5t8 -100q0 -139 -72 -279l-32 -51l165 -205h-100l-117 150q-29 -29 -68.5 -59t-97 -54.5t-133 -40.5t-174.5 -16q-166 0 -280.5 53t-185 135t-101.5 180t-31 187zM135 535 q0 -98 35 -184.5t101.5 -152t163.5 -103.5t220 -38q82 0 147.5 13.5t117 35t88 48t63.5 51.5l-672 768q-80 -47 -132 -101.5t-80.5 -113t-40 -115.5t-11.5 -108z" />
<glyph unicode="'" horiz-adv-x="454" d="M188 971v463h78v-463h-78z" />
<glyph unicode="(" horiz-adv-x="780" d="M238 539q0 129 26.5 254t81.5 242.5t138 225t196 197.5l41 -47q-139 -127 -220 -254t-122 -240.5t-52.5 -211t-11.5 -166.5q0 -70 11.5 -167.5t52.5 -211t122 -240.5t220 -254l-41 -47q-113 90 -196 197.5t-138 225.5t-81.5 243t-26.5 254z" />
<glyph unicode=")" horiz-adv-x="780" d="M238 -334q139 127 220 254t122 240.5t52 211t11 167.5t-11 167t-52 210.5t-122 240.5t-220 254l41 47q113 -90 195.5 -197.5t138 -225t82 -242.5t26.5 -254t-26.5 -254t-82 -243t-138.5 -225.5t-195 -197.5z" />
<glyph unicode="*" horiz-adv-x="1024" d="M172 909l283 168l-283 168l37 49l272 -164v304h62v-304l272 164l37 -49l-283 -168l283 -168l-37 -51l-272 162v-324h-62v324l-272 -162z" />
<glyph unicode="+" horiz-adv-x="1179" d="M131 422v78h422v422h78v-422h418v-78h-418v-422h-78v422h-422z" />
<glyph unicode="," horiz-adv-x="651" d="M160 -168l84 315h100l-102 -315h-82z" />
<glyph unicode="-" horiz-adv-x="477" />
<glyph unicode="." horiz-adv-x="569" d="M197 66q0 33 22 55t55 22t55.5 -22.5t22.5 -54.5q0 -33 -22.5 -55.5t-55.5 -22.5t-55 22.5t-22 55.5z" />
<glyph unicode="/" horiz-adv-x="651" d="M-135 -25l760 1483h82l-760 -1483h-82z" />
<glyph unicode="0" d="M98 492v450q0 113 31 207t91.5 161.5t147.5 105.5t201 38q113 0 201 -38t148.5 -105.5t91 -161.5t30.5 -207v-455q0 -113 -30.5 -207t-91 -161.5t-148.5 -105.5t-201 -38q-115 0 -201.5 38t-147 106.5t-91.5 164t-31 208.5zM188 467q0 -47 13.5 -116.5t54.5 -134 t115.5 -110t197.5 -45.5t198 45.5t116 110t54 134t13 116.5v496q0 88 -25.5 162.5t-73.5 128t-118.5 84t-163.5 30.5q-90 0 -160.5 -30.5t-119.5 -84t-75 -128t-26 -162.5v-496z" />
<glyph unicode="1" horiz-adv-x="1157" d="M299 1360l18 74h299v-1434h-77v1360h-240z" />
<glyph unicode="2" d="M98 1024q0 86 32 164t94.5 137t152.5 94t207 35q106 0 189 -36t140.5 -95t86 -137t28.5 -164q0 -78 -25.5 -143.5t-60.5 -117.5t-74 -91t-65 -60l-508 -405q-53 -43 -77.5 -65.5t-24.5 -39.5q0 -8 7 -13t17 -5h811v-82h-795q-63 0 -97 16.5t-34 73.5q0 51 35 87t111 95 l520 416q27 20 56.5 55t55 78t42 95.5t16.5 109.5q0 72 -25.5 135.5t-73.5 110.5t-118 74.5t-160 27.5q-72 0 -139.5 -21.5t-119.5 -65.5t-83 -109.5t-31 -153.5q0 -84 31 -148.5t83 -109.5t121 -68.5t144 -25.5l-114 -64q-78 14 -142.5 49t-111.5 88.5t-74 124t-27 154.5z " />
<glyph unicode="3" horiz-adv-x="1140" d="M119 0v78h409q115 0 189 31.5t117 82t59 112t16 118.5q0 45 -14 102.5t-54 109.5t-113 88t-189 36h-258v55l485 467q25 25 33 38t8 21q0 18 -15.5 19.5t-29.5 1.5h-633v74h635q16 0 38.5 -1t43 -7.5t35 -20.5t14.5 -41q0 -39 -19.5 -70.5t-33.5 -44.5l-434 -409h131 q131 0 220 -38t143 -98.5t76.5 -135t22.5 -148.5q0 -82 -26.5 -158t-83.5 -134t-147.5 -93t-215.5 -35h-409z" />
<glyph unicode="4" horiz-adv-x="1140" d="M45 492q0 41 25.5 80.5t54.5 84.5l489 781h93l-562 -899q-4 -4 -7 -12.5t-3 -18.5q0 -20 13.5 -24.5t25.5 -4.5h571v856l74 103h4v-959h244v-73h-244v-406h-78v406h-573q-16 0 -37.5 2t-42 10t-34 25.5t-13.5 48.5z" />
<glyph unicode="5" d="M135 0v82h373q186 0 289.5 91t103.5 249q0 119 -45 187.5t-109.5 102t-137 42t-126.5 8.5h-303v672h711v-74h-629v-516h219q39 0 92.5 -3t109.5 -17.5t111.5 -42t99.5 -75t70.5 -120t26.5 -174.5t-38 -180t-103.5 -129.5t-153.5 -77t-188 -25.5h-373z" />
<glyph unicode="6" d="M74 473q0 78 17.5 141.5t45 118.5t60 104.5t65.5 98.5l330 498h102l-372 -555q-39 -57 -69 -103.5t-49.5 -90.5t-29.5 -91t-10 -107q0 -96 31.5 -175t86 -134t128 -86t159.5 -31q84 0 158 31t129 85t87 131t32 169t-32 168t-86 131t-128 86t-160 31q-90 0 -174 -29l60 94 q29 4 57.5 7.5t56.5 3.5q121 0 214.5 -42t155.5 -110.5t94 -157t32 -182.5q0 -111 -40 -202t-107.5 -156.5t-157.5 -102t-191 -36.5q-96 0 -186 33.5t-158.5 97t-109.5 154.5t-41 208z" />
<glyph unicode="7" d="M76 1360v74h856q18 0 40.5 -1t43 -10.5t34 -28t13.5 -53.5t-12.5 -69.5t-28.5 -69.5l-533 -1202h-94l555 1249q12 27 21.5 45.5t9.5 34.5q0 23 -17.5 27t-23.5 4h-864z" />
<glyph unicode="8" d="M94 426q0 76 23.5 141.5t66.5 117.5t103.5 89t132.5 53q-43 14 -83 39t-70.5 62t-49 85t-18.5 109q0 74 25.5 135.5t73.5 104.5t116.5 67.5t154.5 24.5q172 0 271.5 -92t99.5 -240q0 -74 -24.5 -126t-59.5 -85.5t-73 -54t-64 -29.5q72 -16 132 -53t103 -89t66.5 -117.5 t23.5 -141.5q0 -92 -32.5 -173t-94 -142.5t-149.5 -96t-199 -34.5t-198.5 34.5t-149 96t-94.5 142.5t-33 173zM188 430q0 -68 25 -135.5t73 -119.5t119.5 -85t163.5 -33t164 33t120 85t72.5 119.5t24.5 135.5q0 82 -32.5 146.5t-86 108.5t-122 66.5t-140.5 22.5 t-140.5 -22.5t-121.5 -66.5t-86 -108.5t-33 -146.5zM293 1122q0 -51 18.5 -100t53 -87t86 -60.5t118.5 -22.5q57 0 107.5 18.5t88.5 53t59.5 85t21.5 113.5q0 123 -75 190.5t-202 67.5q-72 0 -124 -21.5t-85.5 -58t-50 -83t-16.5 -95.5z" />
<glyph unicode="9" horiz-adv-x="1142" d="M74 956q0 88 31.5 176.5t95 160t157 116.5t213.5 45q117 0 209 -42t156.5 -110.5t98.5 -158.5t34 -187q0 -72 -16.5 -131t-43 -114.5t-60.5 -106.5t-70 -106l-330 -498h-103l373 555q23 33 50.5 74t52 90t42 106.5t17.5 120.5q0 78 -26.5 154t-78 136t-128 98t-177.5 38 q-84 0 -157.5 -29.5t-129 -84t-88 -131t-32.5 -171.5q0 -92 30.5 -168.5t86 -131t130 -85t160.5 -30.5q45 0 88 6t86 22l-59 -94q-61 -16 -115 -16q-98 0 -188 35.5t-158.5 102.5t-109.5 158t-41 201z" />
<glyph unicode=":" horiz-adv-x="569" d="M197 66q0 33 22 55t55 22t55.5 -22.5t22.5 -54.5q0 -33 -22.5 -55.5t-55.5 -22.5t-55 22.5t-22 55.5zM197 717q0 33 22 55.5t55 22.5t55.5 -22.5t22.5 -55.5t-22.5 -55.5t-55.5 -22.5t-55 22.5t-22 55.5z" />
<glyph unicode=";" horiz-adv-x="606" d="M160 -168l84 315h100l-102 -315h-82zM197 717q0 33 22 55.5t55 22.5t55.5 -22.5t22.5 -55.5t-22.5 -55.5t-55.5 -22.5t-55 22.5t-22 55.5z" />
<glyph unicode="&#x3c;" horiz-adv-x="1179" d="M131 412v98l918 426v-86l-840 -389l840 -389v-86z" />
<glyph unicode="=" horiz-adv-x="1179" d="M131 244v78h918v-78h-918zM131 602v78h918v-78h-918z" />
<glyph unicode="&#x3e;" horiz-adv-x="1179" d="M131 -14v86l840 389l-840 389v86l918 -426v-98z" />
<glyph unicode="?" horiz-adv-x="909" d="M45 1049q0 88 30.5 161.5t86 128t130.5 85t163 30.5q70 0 143.5 -23.5t131.5 -73.5t96 -127t38 -181q0 -98 -31.5 -175t-87 -130.5t-129 -82t-157.5 -30.5v-369h-78v443h51q86 0 150.5 26.5t109.5 72.5t67.5 108.5t22.5 136.5q0 86 -29.5 147t-77.5 101t-106.5 59.5 t-113.5 19.5q-70 0 -130.5 -24.5t-104.5 -68.5t-68.5 -104.5t-24.5 -129.5h-82zM342 66q0 33 22.5 55t55.5 22t55.5 -22.5t22.5 -54.5q0 -33 -22.5 -55.5t-55.5 -22.5t-55.5 22.5t-22.5 55.5z" />
<glyph unicode="@" horiz-adv-x="1585" d="M119 707q0 164 57 301t158.5 236t239 154.5t296.5 55.5q162 0 285 -51t206 -134t126 -190.5t43 -218.5q0 -162 -61.5 -271.5t-143.5 -158.5q-43 -27 -79 -32t-62.5 0t-45 16.5t-26.5 19.5q-35 35 -40 71t-5 73v122q0 111 -65.5 182.5t-176.5 71.5q-66 0 -111.5 -23.5 t-74.5 -58t-42 -76.5t-13 -81q0 -45 17 -88t50 -77t79 -55.5t104 -21.5q59 0 108 31t80 82v-97q-18 -31 -47 -50t-57.5 -28.5t-55 -12.5t-43.5 -3q-66 0 -123 25.5t-99 68.5t-66.5 101.5t-24.5 124.5t23.5 124t65.5 101t102.5 67.5t133.5 24.5q68 0 125.5 -22.5t99.5 -64.5 t65.5 -101.5t23.5 -132.5v-127q0 -18 1 -38t8 -36t22.5 -26.5t46.5 -10.5q37 0 77.5 28.5t74.5 80t55.5 120t21.5 148.5q0 98 -37 192.5t-110.5 168t-184 119.5t-256.5 46q-145 0 -267 -52t-211 -142t-139 -212t-50 -259q0 -152 60 -274t154.5 -206t211 -129t229.5 -45 q111 0 231.5 39t227.5 119v-102q-109 -66 -223.5 -99.5t-227.5 -33.5q-135 0 -267 48t-237.5 141t-171 228t-65.5 310z" />
<glyph unicode="A" horiz-adv-x="1249" d="M131 0v856q0 63 3 136t24.5 143.5t66.5 136t131 117.5q59 35 128 50t141 15t140.5 -15.5t127.5 -49.5q86 -51 131 -117t66.5 -136.5t24.5 -143t3 -136.5v-856h-86v698h-733v78h733v80q0 70 -4 136.5t-22.5 126t-56.5 111.5t-105 93q-49 29 -104.5 41t-114.5 12 t-114.5 -12t-104.5 -41q-68 -41 -106 -92t-56.5 -111.5t-22.5 -127t-4 -136.5v-856h-86z" />
<glyph unicode="B" d="M131 0v971q0 45 4 101t24.5 112.5t60.5 111t112 97.5q57 35 122.5 48t133.5 13q59 0 115.5 -11t107.5 -38q35 -18 68.5 -46t60.5 -65t43 -85t16 -107q0 -78 -26 -146q-31 -80 -82 -122.5t-111 -65.5q18 -4 47 -12t63 -27.5t67.5 -52.5t62.5 -84q27 -47 38 -100.5 t11 -106.5q0 -96 -39 -176q-37 -74 -89 -116t-107.5 -62.5t-106.5 -25.5t-88 -5h-340v78h291q41 0 89 3t94 17.5t89 43t74 79.5q23 37 33 80t10 88q0 47 -10.5 92t-34.5 86q-31 51 -71 81t-82 45.5t-84 20.5t-74 5h-324v78h209q37 0 84 2t94 14t92 38t80 71q29 39 40 86 t11 94q0 170 -157 241q-39 18 -81 25.5t-85 7.5q-53 0 -104.5 -10t-96.5 -37q-57 -33 -91 -77t-50.5 -92t-21.5 -97t-5 -92v-971h-86z" />
<glyph unicode="C" horiz-adv-x="1028" d="M82 717q0 123 43 250t133 231.5t230.5 170t336.5 65.5h150v-78h-150q-147 0 -268 -48t-207 -134.5t-132 -203t-46 -253.5q0 -154 54.5 -273.5t145.5 -200.5t208.5 -123t244.5 -42h148v-78h-148q-156 0 -291 50t-235 142.5t-158.5 225.5t-58.5 299z" />
<glyph unicode="D" horiz-adv-x="1253" d="M131 0v1434h279q49 0 132 -8.5t177 -44t188 -107.5t168 -199q47 -82 71.5 -173t24.5 -185t-24.5 -185.5t-71.5 -173.5q-74 -127 -168 -198.5t-188 -107.5t-175 -44t-128 -8h-127v78h129q129 0 226 33.5t167 83t115 104.5t69 98q43 72 64.5 154t21.5 166t-21.5 166 t-64.5 153q-25 43 -68.5 98.5t-114.5 104.5t-169 83t-231 34h-195v-1356h-86z" />
<glyph unicode="E" horiz-adv-x="1011" d="M82 717q0 131 44 260t136 230.5t233.5 164t333.5 62.5h129v-78h-129q-139 0 -255.5 -44t-202.5 -122t-138.5 -183.5t-60.5 -230.5h786v-78h-786q6 -137 56.5 -251.5t136.5 -196.5t205.5 -127t263.5 -45h124v-78h-133q-190 0 -330.5 62.5t-231.5 164t-136 229.5t-45 261z " />
<glyph unicode="F" horiz-adv-x="909" d="M131 0v958q0 39 1 84t9.5 91.5t24.5 90.5t47 83q37 47 82 72.5t93 38t97.5 14.5t98.5 2h227v-78h-256q-70 0 -144.5 -16.5t-129.5 -88.5q-47 -61 -55.5 -142t-8.5 -153v-200h594v-78h-594v-678h-86z" />
<glyph unicode="G" horiz-adv-x="1579" d="M70 717q0 154 56 289t154.5 234t230.5 156.5t286 57.5q121 0 216 -28.5t163.5 -66.5t113.5 -77t64 -59l-60 -62q-61 76 -134 119t-141.5 64.5t-128 26.5t-93.5 5q-137 0 -254 -52t-202 -142t-133 -210t-48 -255q0 -133 48 -253t134 -210t203 -143.5t252 -53.5 q131 0 243.5 49.5t196.5 134.5t132 198.5t50 244.5h-622v78h712v-76q0 -117 -45 -242t-135 -228t-223 -169.5t-309 -66.5q-152 0 -285 58t-231.5 158.5t-154.5 234.5t-56 286z" />
<glyph unicode="H" horiz-adv-x="1226" d="M131 0v1434h86v-646h793v646h86v-1434h-86v711h-793v-711h-86z" />
<glyph unicode="I" horiz-adv-x="348" d="M131 0v1434h86v-1434h-86z" />
<glyph unicode="J" horiz-adv-x="669" d="M-31 0v78h135q137 0 209 45t102.5 109.5t34 135t3.5 124.5v942h86v-940q0 -74 -8.5 -161t-50.5 -161t-129 -123t-247 -49h-135z" />
<glyph unicode="K" d="M131 0v1434h86v-646h229q68 0 120 10.5t97.5 46.5t88.5 101.5t92 175.5l137 312h96l-205 -447q-51 -111 -101 -155t-101 -58q39 -4 103.5 -19.5t126 -66.5t105.5 -149.5t44 -266.5v-180q0 -29 6 -53.5t10 -38.5h-88q-4 23 -9 53.5t-5 52.5v162q0 152 -40 240t-101.5 133 t-136.5 57.5t-144 12.5h-324v-711h-86z" />
<glyph unicode="L" horiz-adv-x="770" d="M131 446v988h86v-947q0 -63 7 -134.5t41 -133t103.5 -101.5t196.5 -40h236v-78h-236q-102 0 -175 23.5t-121 61.5t-75.5 86t-42 97t-17.5 96.5t-3 81.5z" />
<glyph unicode="M" horiz-adv-x="1777" d="M57 0l179 1303q2 20 7 46.5t16 50t33.5 39t59.5 15.5q31 0 51.5 -13.5t34 -37t22.5 -56t21 -69.5l344 -1174q4 -14 10.5 -30.5t16.5 -16.5t16 16.5t11 30.5l344 1174q12 37 21 69.5t22.5 56t34 37t51.5 13.5q37 0 59.5 -15.5t33.5 -39t15 -50t8 -46.5l179 -1303h-86 l-179 1309q-4 18 -9 38.5t-19 20.5q-16 0 -25.5 -21.5t-13.5 -37.5l-342 -1168q-8 -29 -17.5 -57.5t-21.5 -52t-31.5 -37.5t-50.5 -14q-29 0 -47.5 13t-31.5 34.5t-22.5 51.5t-19.5 62l-344 1168q-4 18 -12 38.5t-25 20.5q-14 0 -19 -20.5t-9 -38.5l-179 -1309h-86z" />
<glyph unicode="N" horiz-adv-x="1234" d="M131 0v1333q0 8 2 28.5t12.5 41t34 36t66.5 15.5q31 0 49 -9t31.5 -23.5t22.5 -35t20 -40.5l565 -1201q23 -45 32 -62t27 -17q20 0 22.5 13t2.5 23v1332h86v-1332q0 -66 -33 -93t-74 -29h-7q-56 0 -78 30q-24 32 -46 80l-565 1198q-23 45 -32 62.5t-27 17.5q-6 0 -11 -2 q-12 -4 -13 -13.5t-1 -21.5v-1331h-86z" />
<glyph unicode="O" horiz-adv-x="1589" d="M70 717q0 150 56 284t153.5 235t229.5 159.5t284 58.5q150 0 282.5 -59.5t231 -159.5t156 -234.5t57.5 -283.5q0 -150 -57.5 -284t-156 -234.5t-231 -159.5t-282.5 -59q-152 0 -284 58t-229.5 159.5t-153.5 234.5t-56 285zM160 717q0 -133 48 -252t133 -210t201 -144.5 t251 -53.5t251.5 53.5t201.5 144.5t134.5 210t49.5 252q0 131 -49.5 250.5t-134.5 211t-201.5 144.5t-251.5 53t-251 -53t-201 -144.5t-133 -211t-48 -250.5z" />
<glyph unicode="P" horiz-adv-x="1085" d="M131 0v958q0 150 42 246t106.5 151.5t143.5 77t150 21.5q109 0 192 -37t138 -98.5t84 -140t29 -164.5t-26.5 -166t-82 -139.5t-141.5 -95t-205 -35.5h-268v77h268q23 0 82 6.5t122.5 40t112 104.5t48.5 200q0 92 -29 161.5t-78 115.5t-113.5 69.5t-134.5 23.5 q-61 0 -124.5 -19.5t-113.5 -66.5t-83 -128t-33 -206v-956h-86z" />
<glyph unicode="Q" horiz-adv-x="1597" d="M70 713q0 152 57 287t155.5 236t230.5 159.5t284 58.5t284.5 -59.5t232 -160.5t157 -235.5t57.5 -285.5q0 -117 -40 -238t-122 -225.5t-205 -179t-289 -95.5v-290h-86v704h86v-336q145 20 252 89t176.5 161t103.5 199.5t34 210.5q0 133 -49.5 253.5t-135.5 212 t-202.5 144.5t-253.5 53q-135 0 -252 -54t-203 -145.5t-134 -211t-48 -252.5q0 -98 31.5 -202.5t99 -197t170 -161t244.5 -95.5v-77q-154 23 -272 94t-198.5 172.5t-122.5 223.5t-42 243z" />
<glyph unicode="R" horiz-adv-x="1150" d="M131 0v983q0 23 3 66t16.5 95t41 107.5t76.5 100.5t123 73.5t182 28.5q100 0 179 -29.5t132.5 -80t82 -119t28.5 -146.5q0 -123 -58 -217t-177 -135q100 -18 154.5 -69.5t77 -115t25.5 -129t3 -108.5v-213q0 -29 6 -53.5t10 -38.5h-88q-4 23 -9 53.5t-5 52.5v240 q0 45 -8 103.5t-42 108.5t-102.5 85t-187.5 35h-295v78h233q76 0 143.5 18.5t119 56t81 97t29.5 141.5q0 72 -26.5 129t-72.5 97t-109.5 60.5t-139.5 20.5q-84 0 -142.5 -25.5t-96 -64.5t-58 -85t-30 -90t-11.5 -79t-2 -49v-983h-86z" />
<glyph unicode="S" horiz-adv-x="1142" d="M90 0v78h404q55 0 116.5 1t117.5 11t105.5 35t84.5 72q23 33 34 72.5t11 80.5q0 53 -16.5 102.5t-49.5 86.5q-18 20 -44 39.5t-65.5 39t-98 40t-138.5 42.5q-51 14 -113.5 34t-124 48.5t-112.5 72.5t-82 108q-16 35 -22.5 72.5t-6.5 76.5q0 106 60 188q35 47 78.5 74 t94 40t103.5 16.5t106 3.5h439v-78h-439q-66 0 -132 -5t-121 -42q-33 -23 -66 -70t-33 -127q0 -41 11.5 -82t33.5 -76q25 -35 63 -60.5t85 -46t100 -36.5t109 -31q55 -14 111.5 -31.5t108.5 -39t97 -50t76 -67.5q39 -47 58.5 -106.5t19.5 -123.5q0 -57 -13.5 -111t-46.5 -99 q-45 -61 -102 -93t-121.5 -44.5t-135.5 -13.5t-140 -1h-404z" />
<glyph unicode="T" horiz-adv-x="909" d="M4 1356v78h901v-78h-407v-1356h-86v1356h-408z" />
<glyph unicode="U" horiz-adv-x="1249" d="M131 473v961h86v-961q0 -90 24.5 -167t76 -132t127 -86t180.5 -31q104 0 180 31t127 86t75.5 132t24.5 167v961h86v-961q0 -115 -34.5 -206t-99 -155.5t-156 -98t-203.5 -33.5q-113 0 -204 33.5t-155.5 98t-99.5 155.5t-35 206z" />
<glyph unicode="V" horiz-adv-x="1155" d="M29 1434h84l399 -1282q18 -59 28.5 -72.5t22.5 -13.5q23 0 29 16t22 70l426 1282h86l-448 -1346q-6 -18 -12.5 -36.5t-17.5 -35t-31.5 -26.5t-53.5 -10q-47 0 -71.5 21.5t-45.5 86.5z" />
<glyph unicode="W" horiz-adv-x="1933" d="M131 479v955h86v-955v-61.5t4 -66.5t14.5 -69.5t30.5 -68.5q41 -68 117 -112t178 -44q82 0 148.5 32t114.5 88t74 134t26 168v955h86v-955q0 -111 30.5 -190.5t80.5 -131t116 -76t135 -24.5q100 0 176 44t117 110t46 129t5 119v975h86v-955q0 -61 -4 -122.5t-23.5 -120 t-60.5 -109.5t-112 -92q-74 -41 -163 -53q-32 -4 -63 -5q-57 1 -114 15q-88 22 -166 83.5t-129 166.5q-23 -47 -59 -94.5t-87 -84t-116.5 -60t-149.5 -23.5q-59 0 -115.5 13t-107.5 42q-72 41 -113 92t-60.5 109.5t-23.5 120t-4 122.5z" />
<glyph unicode="X" horiz-adv-x="1245" d="M33 0v86q109 4 208 54t173.5 135t120 199t45.5 245t-45.5 245.5t-120 199.5t-174 135.5t-207.5 54.5v86q104 -2 198.5 -39t171 -102.5t133 -155.5t87.5 -195q31 104 87 194.5t133 156t171 102.5t198 39v-86q-109 -4 -208 -54.5t-174.5 -135.5t-119.5 -199.5t-44 -245.5 t44 -245t119.5 -199t175 -135t207.5 -54v-86q-104 2 -198 39t-171 102.5t-133.5 155.5t-86.5 195q-31 -104 -87.5 -194.5t-133 -156t-171 -102.5t-198.5 -39z" />
<glyph unicode="Y" d="M131 1042v392h86v-398q0 -84 26.5 -150.5t72.5 -112.5t111 -71.5t142 -25.5q76 0 141.5 25.5t111.5 71.5t73 112.5t27 150.5v398h86v-392q0 -98 -31 -179t-84 -138t-126 -90t-155 -37v-598h-86v598q-84 4 -155.5 37t-124.5 90t-84 138t-31 179z" />
<glyph unicode="Z" horiz-adv-x="1038" d="M57 80q-4 29 7.5 62.5t52.5 90.5l745 1051q8 12 14.5 21.5t4.5 23.5q0 4 -6.5 15.5t-30.5 11.5h-707v78h680h46t47.5 -7.5t37 -24t19.5 -48.5q1 -7 1 -15q0 -22 -8 -48q-12 -34 -53 -91l-745 -1050q-8 -12 -14.5 -21.5t-4.5 -24.5q0 -4 6.5 -15t30.5 -11h801v-78h-780 q-25 0 -49.5 1t-45 9t-34 23.5t-15.5 46.5z" />
<glyph unicode="[" horiz-adv-x="569" d="M184 -381v1815h279v-78h-201v-1659h201v-78h-279z" />
<glyph unicode="\" horiz-adv-x="651" d="M-135 1458h82l760 -1483h-82z" />
<glyph unicode="]" horiz-adv-x="569" d="M106 -303h201v1659h-201v78h279v-1815h-279v78z" />
<glyph unicode="^" horiz-adv-x="1179" d="M125 537l420 825h90l420 -825h-92l-373 739l-373 -739h-92z" />
<glyph unicode="_" horiz-adv-x="1024" d="M0 -154h1024v-102h-1024v102z" />
<glyph unicode="`" horiz-adv-x="454" d="M-4 1376h102l246 -282h-78z" />
<glyph unicode="a" horiz-adv-x="1200" d="M70 473q0 94 35.5 187.5t103 167t164 118.5t217.5 45q92 0 179 -31.5t155.5 -98t110.5 -169t42 -243.5v-449h-78v432q0 125 -34.5 217t-92 151.5t-132 88.5t-154.5 29q-98 0 -179 -37t-138.5 -99.5t-89.5 -142.5t-32 -166q0 -88 33 -165t91.5 -133t138 -89t176.5 -33 q98 0 177 36t155 108v-91q-59 -53 -140.5 -89.5t-187.5 -36.5q-98 0 -191.5 33.5t-166 97t-117.5 154.5t-45 208z" />
<glyph unicode="b" horiz-adv-x="1202" d="M123 578v856h78v-856q0 -37 2 -83t11 -95.5t28.5 -99.5t54.5 -95q43 -57 122 -104.5t195 -47.5q86 0 166 31t141.5 88t97.5 138t36 179q0 86 -23.5 149.5t-57.5 110t-72 75t-68 44.5q-51 27 -106.5 38.5t-113.5 11.5q-76 0 -159.5 -32t-171.5 -114v90q84 78 170 103.5 t172 25.5q66 0 130 -12t124 -43q47 -25 92 -65t80.5 -95t58.5 -125.5t23 -158.5q0 -119 -43 -213.5t-116 -161t-167 -102t-195 -35.5q-82 0 -144 19t-108.5 46t-76 56.5t-43.5 48.5q-41 51 -64.5 105t-35 109.5t-14.5 109.5t-3 104z" />
<glyph unicode="c" horiz-adv-x="843" d="M78 479q0 72 17.5 140.5t54.5 128.5q45 76 103 119.5t117.5 66t116 30t97.5 7.5h137v-74h-162q-76 0 -133 -20.5t-99 -49t-70 -62.5t-42 -58q-31 -51 -45 -109.5t-14 -118.5q0 -59 14 -114.5t45 -104.5q39 -66 92 -102.5t106.5 -55t101.5 -23.5t81 -5h125v-74h-137 q-92 0 -164 20.5t-124 52t-88 69.5t-58 75q-37 59 -54.5 126t-17.5 136z" />
<glyph unicode="d" horiz-adv-x="1202" d="M70 494q0 145 67.5 264t188.5 180q59 29 122.5 41t129.5 12q92 0 172 -26q47 -16 90 -42t80 -61v-90q-27 25 -77 61.5t-110 59.5q-72 25 -145 25q-59 0 -116.5 -9.5t-111.5 -38.5q-98 -51 -155.5 -150t-57.5 -222q0 -82 31 -162t87.5 -142.5t138 -101.5t184.5 -39 q117 0 195.5 47t121.5 105q35 45 54.5 95t28.5 99.5t11 95.5t2 83v856h78v-856q0 -49 -3 -103.5t-14 -110t-34.5 -109.5t-64.5 -105q-23 -29 -58 -60t-81 -55.5t-104 -39.5t-130 -15q-123 0 -220.5 45t-164 117.5t-101 164.5t-34.5 187z" />
<glyph unicode="e" horiz-adv-x="1146" d="M70 483q0 111 37.5 204t105.5 160.5t160 105.5t200 38q135 0 245 -63.5t179 -173.5l-690 -471l-43 59l625 428q-70 86 -159 117t-161 31q-109 0 -200 -50q-94 -51 -158 -149t-64 -240q0 -86 31 -163.5t86 -136t133 -92.5t172 -34q92 0 169 33t132.5 89t88 131t36.5 159 h82q-6 -96 -42 -183t-100.5 -155t-154.5 -107.5t-200 -39.5q-104 0 -197.5 36.5t-163 103t-109.5 159t-40 204.5z" />
<glyph unicode="f" horiz-adv-x="569" d="M123 0v1112q0 117 44 182.5t101.5 96t113.5 37t81 6.5h137v-74h-154q-29 0 -70.5 -6t-80.5 -32t-66.5 -78t-27.5 -146v-127h401v-74h-401v-897h-78z" />
<glyph unicode="g" horiz-adv-x="1200" d="M70 473q0 80 21.5 151.5t60 131t89 106.5t109.5 76q55 29 116.5 41t123.5 12q123 0 216 -48t152 -120q39 -49 62.5 -103t36 -111.5t16.5 -112t4 -103.5v-330q0 -45 -3 -101t-18.5 -115.5t-46 -117t-87 -101.5t-140.5 -71.5t-204 -27.5q-47 0 -111 9t-158 44l25 74 q66 -29 134.5 -41t117.5 -12q143 0 226 45t125 112.5t52 148.5t10 154v330q0 33 -2 78t-12 96t-29.5 103.5t-54.5 97.5q-16 20 -41.5 46t-64.5 49.5t-90.5 39t-118.5 15.5q-53 0 -106.5 -10.5t-100.5 -35.5q-53 -29 -96 -70.5t-73 -95t-46.5 -112.5t-16.5 -121 q0 -125 70 -229q59 -90 160.5 -140.5t208.5 -50.5q61 0 112.5 14.5t92 36t72.5 46t55 47.5v-91q-74 -68 -156 -97t-172 -29q-150 0 -267.5 66.5t-181.5 170.5q-35 57 -53 123t-18 133z" />
<glyph unicode="h" horiz-adv-x="1024" d="M123 0v1434h78v-607q10 16 32.5 44t60.5 54.5t93 46t131 19.5q84 0 154.5 -29.5t121 -84t79 -129t28.5 -166.5v-582h-78v580q0 80 -24.5 142t-65.5 106t-97 67t-118 23q-72 0 -130 -26t-99 -72t-64.5 -107.5t-23.5 -130.5v-582h-78z" />
<glyph unicode="i" horiz-adv-x="368" d="M123 1245q0 29 16.5 45.5t44.5 16.5q29 0 45.5 -16.5t16.5 -45.5t-16.5 -45t-45.5 -16t-45 16t-16 45zM145 0v971h78v-971h-78z" />
<glyph unicode="j" horiz-adv-x="411" d="M-102 -393h53q82 0 130 28.5t72.5 71.5t30.5 91t6 85v1088h78v-1080q0 -20 -2 -54t-11 -73.5t-28.5 -80.5t-54.5 -74t-89 -54.5t-132 -21.5h-53v74zM166 1245q0 29 16.5 45.5t44.5 16.5q29 0 45.5 -16.5t16.5 -45.5t-16.5 -45t-45.5 -16t-45 16t-16 45z" />
<glyph unicode="k" horiz-adv-x="909" d="M123 0v1434h78v-869h159q43 0 78 19.5t66 52.5t59.5 76t59.5 88l114 170h94l-163 -248q-23 -35 -40.5 -59.5t-33.5 -44t-33.5 -34t-40.5 -28.5q80 0 132.5 -32.5t78.5 -63.5q27 -33 40 -68t19.5 -70.5t7.5 -70.5t1 -66v-186h-78v199q0 47 -7 109.5t-42 107.5 q-27 35 -77 55.5t-120 20.5h-274v-492h-78z" />
<glyph unicode="l" horiz-adv-x="454" d="M188 0v1434h78v-1434h-78z" />
<glyph unicode="m" horiz-adv-x="1486" d="M123 0v610q0 51 6 101.5t25.5 95.5t54.5 84t92 67q45 20 107 30q26 4 54 4q38 0 74 -8q64 -13 121.5 -57t87.5 -126q35 100 113 145t176 45q84 0 152 -33q57 -29 92 -67.5t54.5 -83.5t25.5 -95t6 -102v-610h-78v612q0 45 -6 95.5t-35 97.5q-10 16 -27.5 35.5t-43 37 t-60.5 29t-80 11.5q-47 0 -81.5 -12.5t-60.5 -30t-42 -38t-27 -36.5q-31 -53 -36 -107.5t-5 -103.5v-590h-77v590q0 49 -5.5 103.5t-35.5 107.5q-10 16 -26.5 36.5t-42.5 38t-60.5 30t-81.5 12.5q-45 0 -80 -11.5t-60.5 -29t-43 -37t-27.5 -35.5q-29 -47 -35 -97.5t-6 -95.5 v-612h-78z" />
<glyph unicode="n" horiz-adv-x="1024" d="M123 0v557q0 55 7 111.5t29.5 107.5t63.5 95t109 79q41 23 87 32t93 9t93 -9t87 -32q68 -35 109 -79t63.5 -95t29.5 -107.5t7 -111.5v-557h-78v549q0 106 -31.5 195.5t-134.5 140.5q-35 16 -71.5 24.5t-73.5 8.5t-74 -8.5t-71 -24.5q-102 -51 -134 -140.5t-32 -195.5 v-549h-78z" />
<glyph unicode="o" horiz-adv-x="1196" d="M78 485q0 104 39 196.5t106.5 161t158.5 108.5t193 40t193.5 -40t159 -108.5t106.5 -160.5t39 -197q0 -104 -39 -196t-106.5 -161t-158.5 -108.5t-194 -39.5q-102 0 -193 39.5t-158.5 108.5t-106.5 161t-39 196zM156 485q0 -92 32.5 -170.5t89 -137t133 -91.5t164.5 -33 t165 33t133.5 91.5t89 137t32.5 170.5t-32.5 171t-89 137.5t-133.5 91.5t-165 33t-164.5 -33t-133 -91.5t-89 -137t-32.5 -171.5z" />
<glyph unicode="p" horiz-adv-x="1202" d="M123 393q0 49 3 103.5t14.5 110t35 109.5t64.5 105q25 29 58.5 59.5t79.5 55.5t104.5 40t129.5 15q61 0 123 -12t117 -41q57 -29 107.5 -74t89 -103.5t61.5 -129t23 -148.5q0 -152 -70 -272.5t-186 -179.5q-61 -33 -131 -43.5t-140 -10.5q-88 0 -168 30t-155 99v91 q92 -86 173 -116t158 -30q152 0 244 57.5t139 141.5q31 53 44.5 112.5t13.5 120.5q0 59 -17.5 113.5t-46.5 105.5q-16 27 -44.5 64t-74 70.5t-109 57.5t-149.5 24q-117 0 -195.5 -47.5t-121.5 -104.5q-35 -47 -54.5 -96t-28.5 -98.5t-11 -95.5t-2 -83v-856h-78v856z" />
<glyph unicode="q" horiz-adv-x="1202" d="M70 483q0 78 22.5 148.5t60 129t89 103.5t108.5 74q55 29 116.5 41t123.5 12q72 0 130 -15t104 -40t80 -55.5t59 -59.5q41 -51 64.5 -105t34.5 -109.5t14 -110t3 -103.5v-856h-78v856q0 37 -2 83t-11 95.5t-28.5 98.5t-54.5 96q-43 57 -121.5 104.5t-195.5 47.5 q-53 0 -105.5 -11.5t-99.5 -36.5t-89 -62.5t-75 -87.5t-52.5 -109.5t-19.5 -127.5q0 -61 13.5 -120.5t44.5 -112.5q25 -43 59.5 -80t80.5 -63.5t107 -42.5q53 -13 119 -13h17q82 2 160.5 31t171.5 115v-91q-76 -70 -156 -97t-168 -32q-16 -1 -31 -1q-83 0 -147 18 q-76 22 -131.5 58t-92 79t-57.5 80q-35 61 -51 131t-16 141z" />
<glyph unicode="r" horiz-adv-x="569" d="M123 0v971h78v-187q12 33 39.5 72t81.5 70q37 20 84 32.5t86 12.5h90v-74h-82q-39 0 -78 -10t-70 -27q-53 -29 -82.5 -72t-45 -91t-19.5 -97t-4 -92v-508h-78z" />
<glyph unicode="s" horiz-adv-x="897" d="M78 0v74h409q23 0 57 2t67.5 11t63.5 25.5t48 47.5q10 16 14 36.5t4 41.5q0 66 -36 112q-29 35 -90.5 62.5t-186.5 56.5q-41 8 -83 18.5t-81 23.5t-71.5 31.5t-57.5 45.5q-29 31 -43 71.5t-14 81.5q0 57 22 101q23 45 55.5 71.5t68.5 39t75 15.5t74 3h381v-74h-396 q-49 0 -97 -8t-81 -60q-14 -20 -19 -43.5t-5 -48.5q0 -51 32 -94q31 -39 94.5 -60.5t163.5 -43.5q125 -29 199 -57.5t113 -69.5q31 -33 46 -76t15 -90q0 -35 -8 -65.5t-27 -59.5q-29 -45 -71.5 -69.5t-86.5 -36t-84 -13.5t-63 -2h-401z" />
<glyph unicode="t" horiz-adv-x="520" d="M123 324v913h78v-266h344v-74h-344v-569q0 -43 3 -91.5t29 -89.5q33 -51 78 -62t95 -11h139v-74h-139q-98 0 -154.5 30.5t-85.5 78t-36 104.5t-7 111z" />
<glyph unicode="u" horiz-adv-x="1024" d="M123 414v557h78v-549q0 -106 31.5 -195.5t134.5 -140.5q35 -16 71.5 -24.5t73.5 -8.5t74 8.5t71 24.5q102 51 134 140t32 196v549h78v-557q0 -59 -7 -114.5t-29.5 -106t-63.5 -93.5t-109 -80q-39 -20 -80 -33.5t-82 -13.5q-51 0 -101 11.5t-97 35.5q-68 37 -109 81 t-63.5 94.5t-29.5 104.5t-7 114z" />
<glyph unicode="v" horiz-adv-x="909" d="M-8 971h90l344 -879q10 -25 15 -33t14 -8q8 0 13 8.5t15 32.5l344 879h91l-373 -940q-8 -20 -21.5 -31.5t-27 -18t-24.5 -7.5t-17 -1t-17.5 1t-25 7.5t-26.5 17.5t-21 32z" />
<glyph unicode="w" horiz-adv-x="1486" d="M123 358v613h78v-613q0 -47 7 -97t34 -95q10 -16 27.5 -36.5t43 -37t60.5 -28t80 -11.5q59 0 112 25q51 25 79 61.5t41 78.5t16.5 85t3.5 78v590h77v-590q0 -92 13.5 -141.5t27.5 -71.5q25 -43 63 -69.5t83 -38.5q33 -9 67 -8l23 1q45 4 86 23q51 25 79.5 61.5t43 76.5 t16.5 79t2 65v613h78v-613q0 -49 -6 -99t-25.5 -95t-54.5 -84t-92 -68q-35 -16 -74 -24t-78 -8t-75.5 6t-63.5 18q-37 16 -81 54t-69 112q-29 -74 -73.5 -112t-79.5 -54q-33 -14 -69 -19t-70 -5q-84 0 -152 32q-57 29 -92 68t-54.5 84t-25.5 95t-6 99z" />
<glyph unicode="x" horiz-adv-x="905" d="M37 0v74h20q92 0 159 40t111 100t65.5 133t21.5 138q0 66 -21.5 138.5t-65.5 133t-110.5 100.5t-159.5 40h-20v74h18q76 0 138.5 -23.5t112.5 -63.5t87 -92.5t60 -109.5q23 57 59.5 109.5t86.5 92.5t112.5 63.5t138.5 23.5h18v-74h-20q-92 0 -158.5 -40t-110.5 -100.5 t-65.5 -133t-21.5 -138.5t21.5 -138.5t65.5 -132.5t110.5 -100t158.5 -40h20v-74h-18q-76 0 -138.5 23.5t-112.5 63.5t-87 92t-59 110q-23 -57 -60 -109.5t-87 -92.5t-112.5 -63.5t-138.5 -23.5h-18z" />
<glyph unicode="y" horiz-adv-x="1024" d="M123 414v557h78v-549q0 -18 2 -47t6 -59.5t13 -62.5t24 -58q35 -61 105.5 -101.5t160.5 -40.5q92 0 161.5 40t104.5 106q14 27 23.5 56.5t13.5 60t6 58t2 48.5v549h78v-557q0 -135 -40 -217t-95 -128t-115.5 -63.5t-99.5 -21.5v-426h-78v426q-86 6 -145.5 34.5 t-98.5 70.5t-60.5 90t-31.5 94t-12 83t-2 58z" />
<glyph unicode="z" horiz-adv-x="796" d="M45 78q-1 5 -1 11q0 50 50 108l531 641q8 10 15 18t5 21q-2 16 -14.5 18t-22.5 2h-516v74h553q49 0 67.5 -28t20.5 -50q1 -5 1 -11q0 -50 -50 -108l-530 -641q-8 -10 -15.5 -18.5t-5.5 -20.5q2 -16 14.5 -18t22.5 -2h582v-74h-619q-49 0 -67.5 27.5t-20.5 50.5z" />
<glyph unicode="{" horiz-adv-x="569" d="M135 502v73q45 4 68.5 27t33 64t9.5 98v131v317q0 100 10 150.5t31.5 72t51.5 22.5t71 1h53v-78h-55h-35t-31 -22q-2 -4 -5 -11.5t-6 -27t-5 -53t-2 -88.5v-322q0 -31 -2.5 -73t-12.5 -86t-31.5 -86t-60.5 -72q37 -35 58.5 -70t32.5 -73t13.5 -81t2.5 -94v-321 q0 -55 2 -89t5 -53.5t6 -28t5 -10.5q14 -23 30.5 -22.5t35.5 0.5h55v-78h-53q-41 0 -71 1t-51.5 22.5t-31.5 71.5t-10 151v317v131.5t-9.5 98.5t-33 63.5t-68.5 26.5z" />
<glyph unicode="|" horiz-adv-x="454" d="M186 0v1434h82v-1434h-82z" />
<glyph unicode="}" horiz-adv-x="569" d="M135 -303h55h35t31 22q2 2 5 10.5t6 28t5 53t2 89.5v321q0 51 2.5 94t13.5 81t32.5 73t58.5 70q-39 31 -60.5 72.5t-31.5 85.5t-12.5 86t-2.5 73v322q0 55 -2 88.5t-5 53t-6 27t-5 11.5q-14 23 -30.5 22.5t-35.5 -0.5h-55v78h53q39 0 70 -1t52.5 -22.5t31.5 -71.5 t10 -151v-317v-131t9.5 -98t33 -63.5t68.5 -27.5v-73q-45 -4 -68.5 -26.5t-33 -63.5t-9.5 -98.5v-131.5v-317q0 -100 -10 -150.5t-31.5 -72t-52.5 -22.5t-70 -1h-53v78z" />
<glyph unicode="~" horiz-adv-x="1179" d="M131 397q41 78 110.5 123t141.5 45q47 0 93 -17.5t122 -49.5q18 -8 45 -19.5t55.5 -22t57 -17.5t51.5 -7q59 0 107.5 37t84.5 102l50 -45q-31 -53 -65 -85.5t-67.5 -51t-64.5 -25t-55 -6.5q-53 0 -111.5 24t-99.5 42q-82 35 -126 50t-89 15q-115 0 -189 -139z" />
<glyph unicode="&#xa9;" horiz-adv-x="1654" d="M102 717q0 150 56.5 284t154 235t229.5 159.5t283 58.5q150 0 283 -59.5t231.5 -159.5t155.5 -234.5t57 -283.5q0 -150 -57 -284t-155.5 -234.5t-231.5 -159.5t-283 -59q-152 0 -283.5 58t-229 159.5t-154 234.5t-56.5 285zM193 717q0 -133 48 -252t133 -210 t200.5 -144.5t250.5 -53.5t252 53.5t202 144.5t134 210t49 252q0 131 -49 250.5t-134 211t-201.5 144.5t-252.5 53q-135 0 -250.5 -53t-200.5 -144.5t-133 -211t-48 -250.5zM426 717q0 78 26.5 157.5t83 143t142.5 103.5t205 40h125v-74h-97q-115 0 -191.5 -34.5t-123.5 -89 t-67.5 -120t-20.5 -126.5q0 -59 20.5 -125t67.5 -120t124 -90t191 -36h97v-74h-125q-119 0 -205 40t-142.5 103.5t-83 143.5t-26.5 158z" />
<glyph unicode="&#xab;" horiz-adv-x="796" d="M96 485l246 318h96l-245 -318l245 -317h-96zM348 485l246 318h96l-246 -318l246 -317h-96z" />
<glyph unicode="&#xad;" horiz-adv-x="477" />
<glyph unicode="&#xae;" horiz-adv-x="1654" d="M102 717q0 150 56.5 284t154 235t229.5 159.5t283 58.5q150 0 283 -59.5t231.5 -159.5t155.5 -234.5t57 -283.5q0 -150 -57 -284t-155.5 -234.5t-231.5 -159.5t-283 -59q-152 0 -283.5 58t-229 159.5t-154 234.5t-56.5 285zM193 717q0 -133 48 -252t133 -210 t200.5 -144.5t250.5 -53.5t252 53.5t202 144.5t134 210t49 252q0 131 -49 250.5t-134 211t-201.5 144.5t-252.5 53q-135 0 -250.5 -53t-200.5 -144.5t-133 -211t-48 -250.5zM553 305v557q0 113 31.5 177.5t77 97t93.5 41t79 8.5q129 0 197.5 -67.5t68.5 -172.5 q0 -55 -18.5 -92t-42 -60.5t-47 -34.5t-34.5 -16q57 -10 89 -38.5t47.5 -66.5t18.5 -78t3 -73v-129q0 -33 8 -53h-75q-4 14 -7.5 31.5t-3.5 32.5v104q0 23 -1 61.5t-19.5 76.5t-60.5 66t-121 28h-123v73h80q18 0 56 3t76 19.5t65.5 50.5t27.5 95q0 86 -54.5 126t-136.5 40 q-74 0 -113.5 -30.5t-58 -72.5t-21.5 -88.5t-3 -76.5v-539h-78z" />
<glyph unicode="&#xbb;" horiz-adv-x="796" d="M106 168l246 317l-246 318h97l246 -318l-246 -317h-97zM358 168l246 317l-246 318h97l245 -318l-245 -317h-97z" />
<glyph unicode="&#x401;" horiz-adv-x="946" d="M70 408q0 49 9 97t32 93q23 47 67.5 96t122.5 80q-84 45 -121 103.5t-51 97.5q-20 59 -20 127q0 47 9 91t32 85q33 55 76.5 87t93 47t102.5 18.5t106 3.5h349v-78h-349q-35 0 -76.5 -1t-83.5 -12.5t-79 -37t-64 -72.5q-16 -29 -21 -61.5t-5 -67.5q0 -31 5 -61.5t17 -59.5 q27 -61 66 -96t83 -52.5t87 -21.5t78 -4h342v-78h-342q-29 0 -77 -3t-99.5 -21.5t-98.5 -56.5t-76 -105q-14 -33 -19 -68t-5 -69q0 -53 18.5 -110.5t52.5 -102.5q31 -39 68 -62.5t75 -36t78 -15.5t76 -3h349v-78h-347q-41 0 -90 3t-100 18.5t-100.5 47t-92.5 89.5 q-37 49 -57 111.5t-20 138.5zM365 1581q0 29 20.5 49.5t48.5 20.5q29 0 49.5 -20.5t20.5 -49.5t-20.5 -49.5t-49.5 -20.5t-49 20.5t-20 49.5zM688 1581q0 29 20.5 49.5t49.5 20.5t49 -20.5t20 -49.5t-20.5 -49.5t-48.5 -20.5q-29 0 -49.5 20.5t-20.5 49.5z" />
<glyph unicode="&#x402;" horiz-adv-x="1308" d="M4 1356v78h965v-78h-553v-430q53 74 133 117.5t211 43.5q92 0 169 -28.5t132 -82.5t86 -129t31 -167v-256q0 -141 -44 -225t-110 -128t-141.5 -57.5t-139.5 -13.5h-135v78h135q129 0 199 38t103.5 93t40 117.5t6.5 111.5v256q0 147 -92.5 231.5t-251.5 84.5 q-35 0 -91.5 -9.5t-109.5 -45t-92 -106.5t-39 -194v-655h-86v1356h-326z" />
<glyph unicode="&#x403;" horiz-adv-x="862" d="M131 0v985q0 45 3 95t14.5 99.5t35 93.5t66.5 81q39 33 83 49t91 23.5t95 7.5h91h262v-78h-262h-77.5t-82.5 -6.5t-81 -22.5t-70 -49q-29 -29 -45 -65.5t-24.5 -76.5t-10.5 -79t-2 -72v-985h-86zM535 1561l245 282h103l-271 -282h-77z" />
<glyph unicode="&#x404;" horiz-adv-x="1011" d="M53 717q0 139 47 269t138.5 229.5t224.5 159t303 59.5h164v-78h-164q-139 0 -251 -49.5t-192.5 -131t-126.5 -186t-53 -215.5h787v-74h-787q0 -131 47.5 -244.5t131.5 -197.5t197.5 -132t246.5 -48h164v-78h-135q-158 0 -294 50t-235.5 143.5t-156 226.5t-56.5 297z" />
<glyph unicode="&#x405;" horiz-adv-x="1142" d="M90 0v78h404q55 0 116.5 1t117.5 11t105.5 35t84.5 72q23 33 34 72.5t11 80.5q0 53 -16.5 102.5t-49.5 86.5q-18 20 -44 39.5t-65.5 39t-98 40t-138.5 42.5q-51 14 -113.5 34t-124 48.5t-112.5 72.5t-82 108q-16 35 -22.5 72.5t-6.5 76.5q0 106 60 188q35 47 78.5 74 t94 40t103.5 16.5t106 3.5h439v-78h-439q-66 0 -132 -5t-121 -42q-33 -23 -66 -70t-33 -127q0 -41 11.5 -82t33.5 -76q25 -35 63 -60.5t85 -46t100 -36.5t109 -31q55 -14 111.5 -31.5t108.5 -39t97 -50t76 -67.5q39 -47 58.5 -106.5t19.5 -123.5q0 -57 -13.5 -111t-46.5 -99 q-45 -61 -102 -93t-121.5 -44.5t-135.5 -13.5t-140 -1h-404z" />
<glyph unicode="&#x406;" horiz-adv-x="348" d="M131 0v1434h86v-1434h-86z" />
<glyph unicode="&#x407;" horiz-adv-x="348" d="M-55 1630q0 29 20.5 49.5t48.5 20.5q29 0 49.5 -20.5t20.5 -49.5t-20.5 -49t-49.5 -20t-49 20t-20 49zM131 0v1434h86v-1434h-86zM268 1630q0 29 20.5 49.5t49.5 20.5t49.5 -20.5t20.5 -49.5t-20.5 -49t-49.5 -20t-49.5 20t-20.5 49z" />
<glyph unicode="&#x408;" horiz-adv-x="669" d="M-31 0v78h135q137 0 209 45t102.5 109.5t34 135t3.5 124.5v942h86v-940q0 -74 -8.5 -161t-50.5 -161t-129 -123t-247 -49h-135z" />
<glyph unicode="&#x409;" horiz-adv-x="2076" d="M-20 0v78h163v581q0 76 2 152t18.5 149.5t53.5 145.5t107 141q66 66 137 102.5t145 55t147.5 24t143.5 5.5h203v-959q0 -137 40 -220t97 -127t122.5 -57.5t115.5 -13.5q76 0 149.5 23.5t132 74t94 128t35.5 184.5q0 98 -33.5 172t-90 122t-129 71.5t-148.5 23.5 t-155 -24.5t-148 -71.5v86q76 47 150.5 67.5t160.5 20.5q113 0 203 -36t152.5 -98.5t95 -145.5t32.5 -177q0 -86 -27.5 -175t-88 -160.5t-155.5 -116.5t-230 -45q-211 0 -336 128t-125 369v879h-117q-59 0 -127 -5t-135.5 -22.5t-132 -52.5t-121.5 -94q-55 -57 -85 -119 t-45 -128.5t-18.5 -135t-3.5 -140.5v-659h-249z" />
<glyph unicode="&#x40a;" horiz-adv-x="2074" d="M131 0v1434h86v-646h795v646h86v-959q0 -137 40 -220t97 -127t122.5 -57.5t115.5 -13.5q76 0 149.5 23.5t131.5 74t94 128t36 184.5q0 98 -33.5 172t-90 122t-129 71.5t-148.5 23.5t-155 -24.5t-148 -71.5v86q76 47 150.5 67.5t160.5 20.5q113 0 203 -36t152.5 -98.5 t95 -145.5t32.5 -177q0 -86 -27.5 -175t-88 -160.5t-155.5 -116.5t-230 -45q-211 0 -336 128t-125 369v234h-795v-711h-86z" />
<glyph unicode="&#x40b;" horiz-adv-x="1308" d="M4 1356v78h965v-78h-553v-430q55 74 135 117.5t209 43.5q94 0 171 -29.5t132 -83.5t85 -131t30 -173v-670h-86v657q0 106 -33 174t-83 108t-111.5 55.5t-116.5 15.5t-114 -15.5t-108 -55.5t-79.5 -107.5t-30.5 -174.5v-657h-86v1356h-326z" />
<glyph unicode="&#x40c;" d="M131 0v1434h86v-646h229q68 0 120 10.5t97.5 46.5t88.5 101.5t92 175.5l137 312h96l-205 -447q-51 -111 -101 -155t-101 -58q39 -4 103.5 -19.5t126 -66.5t105.5 -149.5t44 -266.5v-180q0 -29 6 -53.5t10 -38.5h-88q-4 23 -9 53.5t-5 52.5v162q0 152 -40 240t-101.5 133 t-136.5 57.5t-144 12.5h-324v-711h-86zM342 1561l246 282h102l-270 -282h-78z" />
<glyph unicode="&#x40e;" horiz-adv-x="1236" d="M131 1014v420h86v-412q0 -70 9.5 -140.5t51 -128t128 -93t239.5 -35.5h293v-78h-293q-82 0 -173 11t-167 57.5t-125 140.5t-49 258zM217 0v78h383q154 0 238 40t125 97t49 120.5t8 113.5v985h86v-930q0 -80 -11.5 -168t-60.5 -163t-150.5 -124t-283.5 -49h-383zM311 1659 h86q23 -63 83.5 -95t137.5 -32q78 0 138.5 31.5t83.5 95.5h86q-29 -94 -109 -149.5t-199 -55.5t-198.5 55.5t-108.5 149.5z" />
<glyph unicode="&#x40f;" horiz-adv-x="1249" d="M131 0v1434h86v-1356h815v1356h86v-1434h-450v-496h-86v496h-451z" />
<glyph unicode="&#x410;" horiz-adv-x="1249" d="M131 0v856q0 63 3 136t24.5 143.5t66.5 136t131 117.5q59 35 128 50t141 15t140.5 -15.5t127.5 -49.5q86 -51 131 -117t66.5 -136.5t24.5 -143t3 -136.5v-856h-86v698h-733v78h733v80q0 70 -4 136.5t-22.5 126t-56.5 111.5t-105 93q-49 29 -104.5 41t-114.5 12 t-114.5 -12t-104.5 -41q-68 -41 -106 -92t-56.5 -111.5t-22.5 -127t-4 -136.5v-856h-86z" />
<glyph unicode="&#x411;" horiz-adv-x="1216" d="M131 459v975h772v-78h-686v-901q0 -47 4 -96.5t23.5 -97.5t58.5 -91t107 -76q76 -37 163 -37q86 0 170 27t144 86q51 51 79.5 129t28.5 176q0 68 -20.5 129.5t-69.5 114.5q-39 41 -106.5 78t-177.5 37q-86 0 -171 -21.5t-151 -52.5v80q109 49 197 60t129 11 q98 0 186 -30.5t162 -108.5q61 -66 86.5 -138.5t25.5 -158.5q0 -111 -35.5 -200t-95.5 -150q-57 -59 -152 -102t-231 -43q-63 0 -124.5 15t-114.5 48q-68 39 -107 90t-60.5 105.5t-27.5 111t-6 109.5z" />
<glyph unicode="&#x412;" d="M131 0v971q0 45 4 101t24.5 112.5t60.5 111t112 97.5q57 35 122.5 48t133.5 13q59 0 115.5 -11t107.5 -38q35 -18 68.5 -46t60.5 -65t43 -85t16 -107q0 -78 -26 -146q-31 -80 -82 -122.5t-111 -65.5q18 -4 47 -12t63 -27.5t67.5 -52.5t62.5 -84q27 -47 38 -100.5 t11 -106.5q0 -96 -39 -176q-37 -74 -89 -116t-107.5 -62.5t-106.5 -25.5t-88 -5h-340v78h291q41 0 89 3t94 17.5t89 43t74 79.5q23 37 33 80t10 88q0 47 -10.5 92t-34.5 86q-31 51 -71 81t-82 45.5t-84 20.5t-74 5h-324v78h209q37 0 84 2t94 14t92 38t80 71q29 39 40 86 t11 94q0 170 -157 241q-39 18 -81 25.5t-85 7.5q-53 0 -104.5 -10t-96.5 -37q-57 -33 -91 -77t-50.5 -92t-21.5 -97t-5 -92v-971h-86z" />
<glyph unicode="&#x413;" horiz-adv-x="864" d="M131 0v985q0 45 3 95t14.5 99.5t35 93.5t66.5 81q39 33 83 49t91 23.5t95 7.5h91h262v-78h-262h-77.5t-82.5 -6.5t-81 -22.5t-70 -49q-29 -29 -45 -65.5t-24.5 -76.5t-10.5 -79t-2 -72v-985h-86z" />
<glyph unicode="&#x414;" horiz-adv-x="1284" d="M-20 78h1054v1278h-116q-53 0 -123 -3t-142.5 -20.5t-144.5 -53.5t-129 -101q-47 -53 -73.5 -115t-39 -127.5t-14.5 -134t-2 -135.5v-506h-86v506q0 68 1 136t13 137t40 136.5t79 130.5q63 80 140 125t158 68.5t163 29t160 5.5h202v-1356h185v-369h-86v291h-1153v-291 h-86v369z" />
<glyph unicode="&#x415;" horiz-adv-x="946" d="M70 408q0 49 9 97t32 93q23 47 67.5 96t122.5 80q-102 55 -147 146.5t-45 181.5q0 66 25.5 133.5t74.5 112.5q37 33 79 50t88 25.5t91 9.5t88 1h322v-78h-322q-35 0 -72 1t-73.5 -4t-72.5 -19.5t-69 -45.5q-45 -43 -57 -92t-12 -90q0 -31 5 -61.5t17 -59.5q27 -61 66 -96 t83 -53.5t87 -22.5t78 -4h342v-78h-342q-29 0 -76 -3t-99.5 -21.5t-99.5 -56.5t-76 -105q-14 -33 -19 -68t-5 -69q0 -84 33 -152q31 -61 74.5 -96t92 -53.5t94.5 -23.5t83 -5h340v-78h-322q-53 0 -108.5 4t-107.5 19.5t-100.5 47t-91.5 87.5q-29 41 -53 101t-24 149z" />
<glyph unicode="&#x416;" horiz-adv-x="1744" d="M102 1434h97l137 -312q27 -63 50.5 -106t40.5 -70.5t30.5 -43t21.5 -23.5q33 -33 66 -50.5t65.5 -26.5t63.5 -11.5t59 -2.5h96v646h86v-646h97q55 0 122.5 13.5t129.5 72.5q16 16 52 68.5t93 179.5l137 312h96l-204 -447q-37 -80 -79 -130t-124 -83q51 -4 117.5 -25.5 t124 -72.5t97.5 -140.5t40 -230.5v-213q0 -23 7 -50.5t11 -41.5h-90q-4 23 -9 53.5t-5 52.5v199q0 137 -42 217t-105.5 122t-137.5 54.5t-137 12.5h-191v-711h-86v711h-190q-63 0 -137 -12.5t-137.5 -54.5t-105.5 -122t-42 -217v-199q0 -23 -5 -53t-9 -53h-90q4 14 11 42 t7 50v213q0 141 40 230.5t97.5 140.5t123 72.5t118.5 25.5q-47 18 -80 43t-55.5 53.5t-39 58t-28.5 58.5z" />
<glyph unicode="&#x417;" horiz-adv-x="946" d="M70 0v78h348q76 0 152.5 19.5t142.5 97.5q33 39 53 93t20 120q0 35 -5 69.5t-19 67.5q-29 68 -76 105.5t-98 56t-99.5 21.5t-76.5 3h-260v78h260q33 0 76.5 4t88 22.5t83 53.5t65.5 96q12 29 17.5 59.5t5.5 61.5q0 33 -5.5 64.5t-21.5 60.5q-25 47 -62.5 72.5t-78.5 37 t-84 13.5t-78 2h-348v78h348q51 0 105.5 -4.5t103.5 -19.5t93 -47t77 -89q23 -39 32 -83t9 -89q0 -82 -26 -140.5t-58.5 -98.5t-64.5 -61.5t-44 -27.5q78 -31 123 -80t68 -96q23 -45 32 -93t9 -97q0 -88 -25 -148.5t-53 -101.5q-43 -55 -91.5 -87t-98.5 -47.5t-99 -19.5 t-92 -4h-348z" />
<glyph unicode="&#x418;" horiz-adv-x="1241" d="M131 150v1284h86v-1336q0 -10 4 -21t21 -11q23 -2 39 30.5t30 63.5l549 1147q27 57 55.5 102t88.5 45q39 0 60 -18.5t31.5 -44t12.5 -55t2 -52.5v-1284h-86v1290q0 20 -2 47t-21 31q-12 2 -22 -8t-19.5 -26.5t-16.5 -34t-13 -29.5l-524 -1120q-12 -27 -30 -57 t-39.5 -55.5t-47 -41.5t-56.5 -16q-18 0 -36.5 7t-32.5 26.5t-23.5 52t-9.5 84.5z" />
<glyph unicode="&#x419;" horiz-adv-x="1265" d="M143 150v1284h86v-1270q0 -12 -1 -29.5t0 -33t7.5 -25.5t20.5 -10q6 0 16.5 4t20.5 24l579 1213q12 27 25.5 54.5t30 48t37 32.5t51.5 12q37 0 58.5 -16.5t32.5 -41t13 -55t2 -57.5v-1284h-86v1268q0 14 1 31.5t0 32t-6 24.5t-17 12t-22.5 -7t-18.5 -24.5t-16.5 -34 t-14.5 -32.5l-522 -1120q-12 -29 -29.5 -59t-39 -54.5t-47 -40.5t-56.5 -16q-35 0 -55.5 15t-31.5 39.5t-14.5 54.5t-3.5 61zM326 1659h86q23 -63 83 -95t138 -32t138 31.5t83 95.5h86q-29 -94 -108.5 -149.5t-198.5 -55.5t-199 55.5t-108 149.5z" />
<glyph unicode="&#x41a;" d="M131 0v1434h86v-646h229q68 0 120 10.5t97.5 46.5t88.5 101.5t92 175.5l137 312h96l-205 -447q-51 -111 -101 -155t-101 -58q39 -4 103.5 -19.5t126 -66.5t105.5 -149.5t44 -266.5v-180q0 -29 6 -53.5t10 -38.5h-88q-4 23 -9 53.5t-5 52.5v162q0 152 -40 240t-101.5 133 t-136.5 57.5t-144 12.5h-324v-711h-86z" />
<glyph unicode="&#x41b;" horiz-adv-x="1230" d="M-20 0v78h163v581q0 76 2 152t18.5 149.5t53.5 145.5t107 141q66 66 137 102.5t145 55t147.5 24t143.5 5.5h203v-1434h-86v1356h-117q-59 0 -127 -5t-135.5 -22.5t-132 -52.5t-121.5 -94q-55 -57 -85 -119t-45 -128.5t-18.5 -135t-3.5 -140.5v-659h-249z" />
<glyph unicode="&#x41c;" horiz-adv-x="1777" d="M57 0l179 1303q2 20 7 46.5t16 50t33.5 39t59.5 15.5q31 0 51.5 -13.5t34 -37t22.5 -56t21 -69.5l344 -1174q4 -14 10.5 -30.5t16.5 -16.5t16 16.5t11 30.5l344 1174q12 37 21 69.5t22.5 56t34 37t51.5 13.5q37 0 59.5 -15.5t33.5 -39t15 -50t8 -46.5l179 -1303h-86 l-179 1309q-4 18 -9 38.5t-19 20.5q-16 0 -25.5 -21.5t-13.5 -37.5l-342 -1168q-8 -29 -17.5 -57.5t-21.5 -52t-31.5 -37.5t-50.5 -14q-29 0 -47.5 13t-31.5 34.5t-22.5 51.5t-19.5 62l-344 1168q-4 18 -12 38.5t-25 20.5q-14 0 -19 -20.5t-9 -38.5l-179 -1309h-86z" />
<glyph unicode="&#x41d;" horiz-adv-x="1228" d="M131 0v1434h86v-646h795v646h86v-1434h-86v711h-795v-711h-86z" />
<glyph unicode="&#x41e;" horiz-adv-x="1589" d="M70 717q0 150 56 284t153.5 235t229.5 159.5t284 58.5q150 0 282.5 -59.5t231 -159.5t156 -234.5t57.5 -283.5q0 -150 -57.5 -284t-156 -234.5t-231 -159.5t-282.5 -59q-152 0 -284 58t-229.5 159.5t-153.5 234.5t-56 285zM160 717q0 -133 48 -252t133 -210t201 -144.5 t251 -53.5t251.5 53.5t201.5 144.5t134.5 210t49.5 252q0 131 -49.5 250.5t-134.5 211t-201.5 144.5t-251.5 53t-251 -53t-201 -144.5t-133 -211t-48 -250.5z" />
<glyph unicode="&#x41f;" horiz-adv-x="1247" d="M131 0v1434h985v-1434h-86v1356h-813v-1356h-86z" />
<glyph unicode="&#x420;" horiz-adv-x="1085" d="M131 0v958q0 150 42 246t106.5 151.5t143.5 77t150 21.5q109 0 192 -37t138 -98.5t84 -140t29 -164.5t-26.5 -166t-82 -139.5t-141.5 -95t-205 -35.5h-268v77h268q23 0 82 6.5t122.5 40t112 104.5t48.5 200q0 92 -29 161.5t-78 115.5t-113.5 69.5t-134.5 23.5 q-61 0 -124.5 -19.5t-113.5 -66.5t-83 -128t-33 -206v-956h-86z" />
<glyph unicode="&#x421;" horiz-adv-x="1024" d="M82 717q0 123 43 250t133 231.5t230.5 170t336.5 65.5h150v-78h-150q-147 0 -268 -48t-207 -134.5t-132 -203t-46 -253.5q0 -154 54.5 -273.5t145.5 -200.5t208.5 -123t244.5 -42h148v-78h-148q-156 0 -291 50t-235 142.5t-158.5 225.5t-58.5 299z" />
<glyph unicode="&#x422;" horiz-adv-x="909" d="M4 1356v78h901v-78h-407v-1356h-86v1356h-408z" />
<glyph unicode="&#x423;" horiz-adv-x="1236" d="M131 1014v420h86v-412q0 -70 9.5 -140.5t51 -128t128 -93t239.5 -35.5h293v-78h-293q-82 0 -173 11t-167 57.5t-125 140.5t-49 258zM217 0v78h383q154 0 238 40t125 97t49 120.5t8 113.5v985h86v-930q0 -80 -11.5 -168t-60.5 -163t-150.5 -124t-283.5 -49h-383z" />
<glyph unicode="&#x424;" horiz-adv-x="1757" d="M131 801q0 109 39 219t117 200.5t194.5 148.5t272.5 65v-78q-133 -6 -233.5 -57.5t-167 -130t-99.5 -176t-33 -191.5q0 -115 42 -216.5t118 -177t181.5 -119.5t234.5 -44h39v1349h86v-159h39q147 0 270 -50.5t210 -136.5t136 -201.5t49 -246.5q0 -109 -39 -219.5 t-116.5 -200.5t-194.5 -148.5t-272 -64.5v78q133 6 233 57t166.5 130t99.5 175t33 193q0 115 -42 216t-118 177t-181 120t-234 44h-39v-1356h-86v166h-39q-147 0 -270.5 50t-210.5 136t-136 202t-49 247z" />
<glyph unicode="&#x425;" horiz-adv-x="1245" d="M33 0v86q109 4 208 54t173.5 135t120 199t45.5 245t-45.5 245.5t-120 199.5t-174 135.5t-207.5 54.5v86q104 -2 198.5 -39t171 -102.5t133 -155.5t87.5 -195q31 104 87 194.5t133 156t171 102.5t198 39v-86q-109 -4 -208 -54.5t-174.5 -135.5t-119.5 -199.5t-44 -245.5 t44 -245t119.5 -199t175 -135t207.5 -54v-86q-104 2 -198 39t-171 102.5t-133.5 155.5t-86.5 195q-31 -104 -87.5 -194.5t-133 -156t-171 -102.5t-198.5 -39z" />
<glyph unicode="&#x426;" horiz-adv-x="1273" d="M131 496v938h86v-938q0 -29 2 -70t11.5 -85t27.5 -89t49 -78q35 -37 77 -56.5t86 -28.5t87 -10t80 -1h657v-369h-86v291h-602q-45 0 -91 3t-92 14.5t-91 35t-86 66.5q-41 41 -63.5 87t-34 94t-14.5 97t-3 99zM1024 160v1274h86v-1274h-86z" />
<glyph unicode="&#x427;" horiz-adv-x="1187" d="M82 1049v385h86v-398q0 -43 4 -94t20.5 -101t48 -95.5t89.5 -75.5q27 -14 60.5 -22.5t69.5 -13.5t69.5 -7t58.5 -2h383v809h86v-1434h-86v547h-363q-96 0 -174 8t-141 39q-74 35 -116 89t-63.5 115.5t-26.5 127t-5 123.5z" />
<glyph unicode="&#x428;" horiz-adv-x="1933" d="M131 498v936h86v-938q0 -76 10.5 -151t51 -134t125.5 -96t233 -37h1079v1356h86v-1434h-1196q-80 0 -164 14.5t-152.5 65.5t-113.5 149.5t-45 268.5zM924 160v1274h86v-1274h-86z" />
<glyph unicode="&#x429;" horiz-adv-x="1966" d="M131 496v938h86v-938q0 -102 18.5 -173t50 -117t74.5 -73t89.5 -39t95.5 -14t94 -2h1348v-369h-86v291h-1295q-80 0 -164 14.5t-152.5 65.5t-113.5 149.5t-45 266.5zM924 160v1274h86v-1274h-86zM1716 160v1274h86v-1274h-86z" />
<glyph unicode="&#x42a;" horiz-adv-x="1294" d="M-20 1356v78h356v-959q0 -121 32.5 -201.5t86 -129t120 -68t136.5 -19.5q88 0 163.5 30t131 83t86 130t30.5 171q0 86 -27.5 156.5t-76.5 121t-116.5 79t-147.5 28.5q-86 0 -174 -23.5t-162 -72.5v86q80 47 162 67.5t174 20.5q104 0 188 -35t144.5 -95.5t93 -141 t32.5 -173.5q0 -92 -28.5 -183t-90 -163.5t-156.5 -117.5t-226 -45q-211 0 -336 128t-125 369v879h-270z" />
<glyph unicode="&#x42b;" horiz-adv-x="1472" d="M131 477v957h86v-959q0 -137 40 -220t97.5 -127t123 -57.5t114.5 -13.5q76 0 149.5 23.5t132 74t94.5 128t36 184.5q0 98 -34 172t-90.5 122t-129 71.5t-148.5 23.5t-154.5 -24.5t-148.5 -71.5v86q76 47 150.5 67.5t160.5 20.5q113 0 203 -36t152.5 -98.5t95.5 -145.5 t33 -177q0 -86 -28 -175t-88 -160.5t-155.5 -116.5t-230.5 -45q-211 0 -336 128t-125 369zM1255 0v1434h86v-1434h-86z" />
<glyph unicode="&#x42c;" horiz-adv-x="1193" d="M131 477v957h86v-959q0 -137 40 -220t97.5 -127t123 -57.5t114.5 -13.5q76 0 149.5 23.5t132 74t94.5 128t36 184.5q0 98 -34 172t-90.5 122t-129 71.5t-148.5 23.5t-154.5 -24.5t-148.5 -71.5v86q76 47 150.5 67.5t160.5 20.5q113 0 203 -36t152.5 -98.5t95.5 -145.5 t33 -177q0 -86 -28 -175t-88 -160.5t-155.5 -116.5t-230.5 -45q-211 0 -336 128t-125 369z" />
<glyph unicode="&#x42d;" horiz-adv-x="1011" d="M53 0v78h164q133 0 247 48t197.5 132t131 197.5t47.5 244.5h-787v74h787q-6 111 -52.5 215.5t-127 186t-192.5 131t-251 49.5h-164v78h164q170 0 303 -59.5t224.5 -159t138.5 -229.5t47 -269q0 -164 -56.5 -297t-156 -226.5t-235.5 -143.5t-294 -50h-135z" />
<glyph unicode="&#x42e;" horiz-adv-x="1974" d="M131 0v1434h86v-660h322q-2 -39 0 -78q8 -150 64 -268.5t144.5 -200.5t199 -126t227.5 -44q135 0 252.5 53.5t203.5 143.5t135.5 210t49.5 253t-49.5 253t-135.5 210t-203.5 143t-252.5 53q-111 0 -210.5 -38t-180.5 -105.5t-142 -163.5t-94 -213h-90q33 129 99.5 238.5 t160.5 189.5t209.5 125t247.5 45q152 0 284.5 -58.5t232 -159.5t157 -235.5t57.5 -283.5q0 -152 -57.5 -285t-157 -234.5t-232.5 -159.5t-284 -58q-127 0 -254 48t-229.5 140t-169 225t-72.5 303h-232v-696h-86z" />
<glyph unicode="&#x42f;" horiz-adv-x="1114" d="M102 0q4 14 10.5 38.5t6.5 53.5v152q0 51 8 114.5t39 124t90 110.5t164 75q-59 12 -115.5 39.5t-101.5 73.5t-72 109.5t-27 147.5q0 90 34 167t94.5 132.5t144.5 86t184 30.5q205 0 313.5 -125t108.5 -342v-987h-86v985q0 125 -35 203t-87 119t-112.5 55t-111.5 14 q-66 0 -130.5 -20.5t-114.5 -60.5t-80.5 -102.5t-30.5 -143.5q0 -90 34.5 -154t95 -104.5t142.5 -60t178 -19.5h170v-78h-174q-145 0 -232 -39t-132.5 -97.5t-58.5 -127t-13 -129.5v-134q0 -23 -5 -53t-10 -53h-88z" />
<glyph unicode="&#x430;" horiz-adv-x="1200" d="M70 473q0 96 35.5 189.5t102 166t163 117.5t219.5 45q72 0 130 -15t104 -40t80 -55.5t57 -59.5q39 -49 62.5 -104t35.5 -110.5t15 -112t3 -107.5v-387h-78v387q0 45 -2 92t-11 96.5t-28.5 97.5t-54.5 93q-16 20 -42.5 47t-65.5 49.5t-90.5 39t-118.5 16.5 q-102 0 -183 -39t-138.5 -101.5t-87.5 -142.5t-30 -162q0 -86 32 -163t90.5 -133t139 -90t177.5 -34q98 0 177 36t155 108v-91q-59 -53 -140.5 -89.5t-187.5 -36.5q-98 0 -191.5 33.5t-166 97t-117.5 154.5t-45 208z" />
<glyph unicode="&#x431;" horiz-adv-x="1255" d="M123 578v225q0 53 6 131t33.5 159t85 156.5t160.5 124.5q86 41 180 50.5t174 9.5h276v-74h-276q-84 0 -166 -9.5t-152 -43.5q-84 -41 -132 -103.5t-72.5 -132.5t-31.5 -140.5t-7 -127.5v-225q0 -37 2 -83t11 -95.5t28.5 -99.5t54.5 -95q43 -57 122 -104.5t195 -47.5 q76 0 136.5 19.5t106.5 50.5t80 69.5t56 77.5q29 49 45.5 103.5t16.5 111.5q0 127 -55.5 229.5t-153.5 155.5q-53 29 -112.5 38.5t-119.5 9.5q-106 0 -188 -44.5t-143 -109.5v90q63 68 159.5 102.5t194.5 34.5q61 0 122.5 -12t117.5 -41q117 -59 186.5 -180t69.5 -273 q0 -66 -18.5 -128t-51.5 -119q-20 -35 -56 -80t-90.5 -85t-130 -66.5t-174.5 -26.5q-72 0 -130 15t-104 39.5t-80 55.5t-58 60q-41 51 -64.5 105t-35 109.5t-14.5 109.5t-3 104z" />
<glyph unicode="&#x432;" horiz-adv-x="987" d="M123 0v596q0 180 103.5 287.5t299.5 107.5q94 0 155.5 -27.5t98.5 -67.5t52.5 -87t15.5 -86q0 -53 -19 -98q-16 -35 -43.5 -67t-64.5 -54q92 -16 144.5 -85t52.5 -155q0 -68 -35 -125q-31 -51 -74 -79.5t-90 -42t-94 -15.5t-88 -2h-254v74h258q33 0 72.5 2t77.5 11 t72 30.5t56 60.5q20 39 21 86q0 23 -5.5 44.5t-15.5 39.5q-20 37 -53 59.5t-73 34t-83 14.5t-84 3h-243v73h239q66 0 125.5 14.5t97.5 80.5q25 43 25 92q0 29 -12.5 63.5t-42 64.5t-80.5 50.5t-127 20.5q-12 0 -39 -2.5t-61.5 -11.5t-70.5 -28.5t-66.5 -55.5t-50 -90 t-19.5 -134v-596h-78z" />
<glyph unicode="&#x433;" horiz-adv-x="684" d="M123 0v596q0 33 1 71t8 74.5t23.5 72.5t47.5 69q33 33 71.5 51t78.5 26.5t79 9.5t72 1h192v-74h-196q-25 0 -57.5 -1t-66.5 -7t-67 -21.5t-57 -46.5q-39 -45 -45 -107.5t-6 -117.5v-596h-78z" />
<glyph unicode="&#x434;" horiz-adv-x="1200" d="M70 473q0 94 35.5 187.5t102 167t163 118.5t219.5 45q72 0 129 -16.5t102 -41t79 -54t58 -58.5q41 -51 65 -104t36 -107.5t15 -110t3 -106.5v-327q0 -53 -3 -109.5t-17.5 -112t-43 -108.5t-79.5 -98q-41 -37 -90 -58.5t-95.5 -33t-85 -14.5t-63.5 -3q-66 0 -133.5 10 t-157.5 43l25 74q66 -29 133.5 -41t118.5 -12q70 0 151.5 17.5t141.5 70.5q43 37 67.5 83t35.5 95t14 99t3 98v327q0 37 -2 83t-12 95.5t-29.5 99.5t-54.5 95q-43 57 -119.5 103t-195.5 49q-76 0 -136.5 -19.5t-107.5 -50.5t-81 -69t-54 -74q-31 -53 -45.5 -111.5 t-14.5 -120.5q0 -61 17.5 -120.5t52.5 -108.5q59 -90 161.5 -140.5t207.5 -50.5q61 0 112.5 14.5t92 36t72.5 46t55 47.5v-91q-74 -68 -156 -97t-172 -29q-98 0 -191.5 33.5t-166 97t-117.5 154.5t-45 208z" />
<glyph unicode="&#x435;" horiz-adv-x="1146" d="M70 483q0 111 37.5 204t105.5 160.5t160 105.5t200 38q135 0 245 -63.5t179 -173.5l-690 -471l-43 59l625 428q-70 86 -159 117t-161 31q-109 0 -200 -50q-94 -51 -158 -149t-64 -240q0 -86 32 -162.5t87.5 -135t133 -93.5t169.5 -35t168 33t132.5 89t89 131t36.5 159h82 q-6 -98 -43 -186.5t-101.5 -154t-151.5 -104t-191 -40.5q-111 -2 -205 35.5t-164.5 105t-110.5 160t-40 202.5z" />
<glyph unicode="&#x436;" horiz-adv-x="1290" d="M78 971h94l115 -207q39 -72 75.5 -118t68.5 -71.5t61.5 -36t56.5 -10.5h57v443h78v-443h57q27 0 56.5 10.5t61.5 36t68 71.5t77 118l114 207h94l-163 -285q-43 -74 -81 -110.5t-67 -55.5q68 0 123 -26.5t90 -67.5q49 -59 57.5 -119.5t8.5 -130.5v-176h-78v184 q0 53 -8.5 102.5t-46.5 94.5q-25 27 -52.5 42t-56.5 22.5t-56.5 8.5t-52.5 1h-145v-455h-78v455h-145q-51 0 -106.5 -9.5t-100.5 -50.5q-25 -25 -38 -51.5t-19.5 -54t-7.5 -54t-1 -51.5v-184h-77v176q0 78 9 142.5t68 123.5q35 35 87.5 56.5t113.5 21.5q-12 8 -56 45 t-91 121z" />
<glyph unicode="&#x437;" horiz-adv-x="835" d="M78 0v76h346q27 0 57.5 1t60 7t56.5 21.5t49 44.5q18 27 25.5 57.5t7.5 62.5q0 57 -23 97q-18 35 -45.5 54t-60.5 29.5t-65.5 13.5t-61.5 3h-264v74h264q18 0 46 2t56.5 12t56 30.5t44.5 59.5q10 20 13 41t3 43q0 53 -29 94q-20 31 -45.5 46.5t-53.5 21.5t-57.5 6h-60.5 h-319v74h315q43 0 86 -2t81 -14.5t72 -36t58 -66.5q16 -29 23.5 -59.5t7.5 -63.5q0 -51 -23 -102q-14 -29 -38.5 -60.5t-63.5 -56.5q47 -16 81 -47t52 -66q29 -55 29 -127q0 -41 -9.5 -80.5t-31.5 -74.5q-29 -43 -65 -66.5t-74.5 -34t-78.5 -12.5t-79 -2h-342z" />
<glyph unicode="&#x438;" horiz-adv-x="1030" d="M123 84v887h78v-854q0 -8 3 -17.5t7 -9.5t16.5 13.5t32.5 46.5l432 677q37 57 70 109.5t76 54.5q25 0 39 -11t20 -27.5t8 -35t2 -30.5v-887h-78v848q0 6 -2 19.5t-8 13.5q-8 0 -24.5 -22.5t-24.5 -37.5l-432 -678q-37 -57 -69.5 -109t-75.5 -54q-25 0 -39.5 11 t-20.5 27.5t-8 35t-2 30.5z" />
<glyph unicode="&#x439;" horiz-adv-x="1030" d="M123 84v887h78v-854q0 -8 3 -17.5t7 -9.5t16.5 13.5t32.5 46.5l432 677q18 29 35.5 57.5t34 52.5t35 39t41.5 15q25 0 39 -11t20 -28.5t8 -35t2 -29.5v-887h-78v848q0 6 -2 19.5t-8 13.5q-8 0 -24.5 -22.5t-24.5 -37.5l-432 -678q-18 -29 -35.5 -57.5t-34 -52t-36 -38.5 t-39.5 -15q-25 0 -39.5 11t-20.5 28.5t-8 35t-2 29.5zM199 1372h77q8 -23 25.5 -49.5t45.5 -50t69 -39.5t98 -16t98 16t69 39.5t44 50.5t27 49h77q-12 -37 -34.5 -78t-59.5 -74.5t-91 -55t-130 -21.5t-130 21.5t-91 55t-59.5 74.5t-34.5 78z" />
<glyph unicode="&#x43a;" horiz-adv-x="909" d="M123 0v971h78v-441h159q47 0 81 20.5t59 45.5q33 33 64.5 78t58.5 92l114 205h94l-141 -244q-29 -47 -50.5 -80t-40.5 -56.5t-38.5 -38.5t-40.5 -30q49 -2 87 -15t64.5 -29.5t41 -31l18.5 -18.5q51 -61 59.5 -132t8.5 -142v-154h-78v164q0 45 -7 107.5t-42 107.5 q-33 41 -88.5 59.5t-108.5 18.5h-274v-457h-78z" />
<glyph unicode="&#x43b;" horiz-adv-x="960" d="M-20 0v74h135v295q0 55 3 111.5t16 111.5t39 109.5t73 103.5q55 61 119.5 95t126 49.5t114.5 18.5t88 3h144v-971h-78v897h-66q-72 0 -139.5 -10t-138.5 -47q-78 -41 -122 -98.5t-66.5 -122t-28.5 -130t-6 -120.5v-369h-213z" />
<glyph unicode="&#x43c;" horiz-adv-x="1241" d="M8 0l189 868q4 20 9 42t14 39.5t24.5 29.5t38.5 12q39 2 54 -25.5t25 -62.5l197 -633q18 -59 26.5 -89.5t16.5 -59.5q4 -16 9 -30.5t10 -14.5q4 0 9 14t9 31q8 29 16.5 59.5t26.5 89.5l197 633q10 35 25.5 61.5t53.5 26.5q27 0 42.5 -13t23.5 -31.5t12 -40t8 -38.5 l189 -868h-92l-172 852q-2 8 -4 20.5t-4 18.5q-4 8 -11 -8q-6 -20 -9 -29.5t-7 -26.5l-215 -696q-8 -29 -16.5 -55.5t-18.5 -48t-25.5 -34.5t-37.5 -13q-23 0 -38.5 14t-25.5 35.5t-18.5 48t-16.5 53.5l-217 696q-4 8 -5 16.5t-3 16.5q-4 12 -6 23q-4 12 -6 12t-4 -8 t-5.5 -18.5t-5.5 -19.5t-2 -11l-168 -838h-92z" />
<glyph unicode="&#x43d;" horiz-adv-x="997" d="M123 0v971h78v-398h596v398h77v-971h-77v500h-596v-500h-78z" />
<glyph unicode="&#x43e;" horiz-adv-x="1196" d="M78 485q0 104 39 196.5t106.5 161t158.5 108.5t193 40t193.5 -40t159 -108.5t106.5 -160.5t39 -197q0 -104 -39 -196t-106.5 -161t-158.5 -108.5t-194 -39.5q-102 0 -193 39.5t-158.5 108.5t-106.5 161t-39 196zM156 485q0 -92 32.5 -170.5t89 -137t133 -91.5t164.5 -33 t165 33t133.5 91.5t89 137t32.5 170.5t-32.5 171t-89 137.5t-133.5 91.5t-165 33t-164.5 -33t-133 -91.5t-89 -137t-32.5 -171.5z" />
<glyph unicode="&#x43f;" horiz-adv-x="993" d="M123 0v971h311q68 0 144.5 -5t142.5 -40q55 -31 86 -73t44 -88t16 -96.5t3 -97.5v-571h-77v571q0 39 -2.5 81t-13.5 81t-35.5 73t-69.5 58q-51 29 -114.5 31t-117.5 2h-239v-897h-78z" />
<glyph unicode="&#x440;" horiz-adv-x="1202" d="M123 393q0 49 3 103.5t14.5 110t35 109.5t64.5 105q25 29 58.5 59.5t79.5 55.5t104.5 40t129.5 15q61 0 123 -12t117 -41q57 -29 107.5 -74t89 -103.5t61.5 -129t23 -148.5q0 -152 -70 -272.5t-186 -179.5q-61 -33 -131 -43.5t-140 -10.5q-88 0 -168 30t-155 99v91 q92 -86 173 -116t158 -30q152 0 244 57.5t139 141.5q31 53 44.5 112.5t13.5 120.5q0 59 -17.5 113.5t-46.5 105.5q-16 27 -44.5 64t-74 70.5t-109 57.5t-149.5 24q-117 0 -195.5 -47.5t-121.5 -104.5q-35 -47 -54.5 -96t-28.5 -98.5t-11 -95.5t-2 -83v-856h-78v856z" />
<glyph unicode="&#x441;" horiz-adv-x="843" d="M78 479q0 111 38 201t105.5 154.5t159.5 100.5t203 36h137v-74h-121q-121 0 -205 -37t-137 -96t-77.5 -134t-24.5 -151q0 -72 24.5 -144.5t77.5 -131t137 -94t205 -35.5h121v-74h-137q-111 0 -204 34t-159.5 97.5t-104.5 151.5t-38 196z" />
<glyph unicode="&#x442;" horiz-adv-x="733" d="M-8 897v74h749v-74h-335v-897h-78v897h-336z" />
<glyph unicode="&#x443;" horiz-adv-x="1032" d="M123 465v506h78v-502q0 -49 2 -100.5t14 -100.5t41 -93t84 -79q35 -23 77 -33t83 -10q53 0 103 15.5t91 46.5q49 37 77 81t41 90t15 93t2 90v502h78v-928q0 -49 -1 -100.5t-13 -102.5t-40 -101t-81 -97q-66 -57 -146.5 -84t-164.5 -27q-51 0 -103.5 9t-98.5 21.5t-82 26 t-54 21.5l27 80q12 -6 43.5 -19.5t75.5 -28t95.5 -25.5t102.5 -11q94 0 178 43q70 37 108 82t55 95t19 105.5t2 112.5v113q-41 -66 -96 -104t-106 -54q-61 -18 -127 -18q-76 0 -146 24q-84 31 -131 84t-69.5 116.5t-27.5 131t-5 129.5z" />
<glyph unicode="&#x444;" horiz-adv-x="1331" d="M78 485q0 86 31.5 170t91 151.5t147.5 113t201 51.5v-74q-88 -6 -160 -43t-123 -92t-78.5 -127t-27.5 -150t28.5 -153.5t87 -134t146.5 -93t209 -30.5v1360h78v-463q90 2 187 -22.5t179 -82t134.5 -150.5t52.5 -231q0 -86 -32 -170t-91.5 -151.5t-147.5 -112.5t-200 -51 v74q88 6 159.5 43t122.5 92t79 127t28 149q0 78 -29 154t-87 134t-146.5 93t-208.5 31v-1360h-78v463q-90 -2 -187.5 22.5t-179.5 82t-134 150.5t-52 230z" />
<glyph unicode="&#x445;" horiz-adv-x="909" d="M37 0v74h20q92 0 159 40t111 100t65.5 133t21.5 138q0 66 -21.5 138.5t-65.5 133t-110.5 100.5t-159.5 40h-20v74h20q74 0 137.5 -24.5t114.5 -65.5t87 -92.5t59 -106.5q20 55 57 106.5t88 92.5t114.5 65.5t137.5 24.5h20v-74h-20q-92 0 -158.5 -40t-110.5 -100.5 t-65.5 -133t-21.5 -138.5t21.5 -138.5t65.5 -132.5t110.5 -100t158.5 -40h20v-74h-20q-74 0 -137.5 24.5t-114.5 65.5t-88 92t-57 107q-23 -55 -59 -106.5t-87 -92.5t-114.5 -65.5t-137.5 -24.5h-20z" />
<glyph unicode="&#x446;" horiz-adv-x="1077" d="M123 399v572h78v-572q0 -43 2 -86t14 -80.5t37 -69.5t68 -57q51 -29 113.5 -30.5t113.5 -1.5h508v-326h-78v252h-420q-68 0 -144.5 5t-142.5 40q-55 31 -85.5 73t-44 88t-16.5 96t-3 97zM799 156v815h78v-815h-78z" />
<glyph unicode="&#x447;" horiz-adv-x="894" d="M78 778v193h78v-193q0 -43 2 -86t14 -81t36.5 -69.5t67.5 -56.5q51 -29 114 -30.5t114 -1.5h190v518h78v-971h-78v379h-180q-68 0 -144.5 5t-142.5 40q-55 31 -85.5 73t-44 88t-16.5 96t-3 97z" />
<glyph unicode="&#x448;" horiz-adv-x="1462" d="M123 399v572h78v-572q0 -43 2 -85t14 -80.5t37 -71.5t68 -56q37 -18 91 -25t146 -7h703v897h77v-971h-780q-68 0 -144.5 5t-142.5 40q-55 31 -85.5 73t-44 88t-16.5 96t-3 97zM692 158v813h78v-813h-78z" />
<glyph unicode="&#x449;" horiz-adv-x="1540" d="M123 399v572h78v-572q0 -43 2 -86t14 -80.5t37 -69.5t68 -57q51 -29 113.5 -30.5t113.5 -1.5h971v-326h-78v252h-883q-68 0 -144.5 5t-142.5 40q-55 31 -85.5 73t-44 88t-16.5 96t-3 97zM692 158v813h78v-813h-78zM1262 158v813h77v-813h-77z" />
<glyph unicode="&#x44a;" horiz-adv-x="1046" d="M-8 897v74h321v-572q0 -35 3 -75.5t16.5 -82.5t42 -82t80.5 -69q35 -20 71.5 -28.5t77.5 -8.5q57 0 100.5 13.5t75 33t52 43t32.5 45.5q18 35 26.5 72t8.5 76q0 68 -25.5 118t-66.5 82.5t-94.5 48t-108.5 15.5q-41 0 -95 -13.5t-114 -54.5v82q55 33 107.5 46.5t97.5 13.5 q72 0 140.5 -20.5t120.5 -62.5t84 -105.5t32 -147.5q0 -47 -10.5 -93t-32.5 -87q-14 -27 -40 -58.5t-67 -58.5t-97 -44t-132 -17q-78 0 -145.5 23.5t-122.5 86.5q-35 39 -54.5 80t-28.5 83t-10 85t-1 88v471h-244z" />
<glyph unicode="&#x44b;" horiz-adv-x="1179" d="M123 399v572h78v-572q0 -35 3 -75.5t16 -83.5t42 -83t80 -69q35 -18 72 -26.5t78 -8.5t78.5 7.5t72.5 25.5q55 29 99 91.5t44 158.5q0 72 -32 129q-12 23 -34 46.5t-54.5 43.5t-75.5 32.5t-98 12.5q-41 0 -95.5 -13.5t-113.5 -54.5v82q31 18 82 39t122 21 q123 0 205 -49.5t123 -114.5q49 -78 49 -172q0 -98 -49 -180q-41 -72 -121 -125t-209 -53q-49 0 -97 10t-91 35q-57 33 -91 76.5t-52.5 94t-24.5 102.5t-6 101zM979 0v971h78v-971h-78z" />
<glyph unicode="&#x44c;" horiz-adv-x="933" d="M123 426v545h78v-572q0 -35 3 -75.5t16 -82.5t42 -82t80 -69q35 -20 72 -28.5t78 -8.5q57 0 100 13.5t74.5 33t52 43t33.5 45.5q18 35 26 72t8 76q0 35 -8 68.5t-24 62.5q-33 57 -99.5 95t-162.5 38q-41 0 -95.5 -13.5t-113.5 -54.5v82q55 33 107 46.5t97 13.5 q78 0 151 -24.5t124 -71.5q41 -41 71.5 -101.5t30.5 -138.5q0 -47 -10 -93t-33 -87q-14 -27 -39.5 -57.5t-66.5 -57.5t-97.5 -45t-132.5 -18q-84 0 -153 28q-80 33 -122 86t-61.5 112.5t-22.5 118t-3 101.5z" />
<glyph unicode="&#x44d;" horiz-adv-x="778" d="M70 0v74h135q41 0 88 6t95 24.5t93 52t82 91.5q23 35 42.5 86t21.5 119h-557v73h557q-4 92 -41 162t-86 115q-39 35 -79 54.5t-79 28.5t-77 10t-75 1h-120v74h100q70 0 142.5 -5t158.5 -51q37 -18 79 -52t77 -85t58.5 -123.5t23.5 -171.5q0 -31 -3.5 -69.5t-14.5 -82.5 t-34.5 -90t-62.5 -89q-49 -53 -101.5 -84t-104.5 -46.5t-103.5 -18.5t-96.5 -3h-118z" />
<glyph unicode="&#x44e;" horiz-adv-x="1423" d="M123 0v971h78v-445h254q-6 -74 7 -139t43 -119.5t71.5 -96.5t93.5 -69q43 -23 91 -36t97 -13q92 0 168 37t130 97.5t85 138t31 161.5q0 86 -31 164t-85 136.5t-130 93t-164 37.5q-78 2 -143.5 -22t-117.5 -66t-87 -99t-49 -123h-82q18 90 64.5 162t111 121t142 74.5 t161.5 25.5q104 0 194.5 -41t156 -109.5t103.5 -159.5t38 -194q0 -100 -38 -192t-103.5 -162t-156.5 -111.5t-198 -41.5q-117 0 -225 57q-115 59 -184.5 170.5t-75.5 245.5h-172v-453h-78z" />
<glyph unicode="&#x44f;" horiz-adv-x="931" d="M78 692q0 53 19.5 106.5t62.5 96.5t111.5 69.5t166.5 26.5q57 0 123 -15t121 -60.5t91 -126t36 -211.5v-578h-78v551q0 57 -9 121.5t-41 119t-90.5 90.5t-156.5 36q-76 0 -128 -19.5t-85 -51.5t-47 -73t-14 -82q0 -29 9 -63.5t36.5 -67.5t81 -54.5t139.5 -21.5h223v-73 h-160q-33 0 -67.5 -1t-67 -8.5t-62.5 -24t-52 -46.5q-29 -39 -34 -82t-5 -80v-170h-78v166q0 47 5 95t38 95q20 29 47 50.5t55 35.5q-86 23 -138 92.5t-52 157.5z" />
<glyph unicode="&#x451;" horiz-adv-x="1150" d="M70 483q0 111 37.5 204t105.5 160.5t160 105.5t200 38q137 0 248 -63.5t180 -173.5l-690 -471l-45 63l625 424q-10 12 -33.5 36.5t-62.5 49.5t-94.5 43.5t-127.5 18.5q-94 0 -171.5 -35t-133 -95.5t-86 -140.5t-30.5 -168q0 -86 31.5 -163.5t87 -136t133 -92.5t169.5 -34 t168 33t132.5 90t89 131t36.5 158h82q-6 -98 -44 -186.5t-102.5 -155t-152.5 -105t-192 -38.5q-111 0 -205 36.5t-164.5 104t-110.5 160t-40 202.5zM324 1212q0 29 20.5 49.5t48.5 20.5q29 0 49.5 -20.5t20.5 -49.5t-20.5 -49t-49.5 -20t-49 20t-20 49zM688 1212 q0 29 20.5 49.5t49.5 20.5t49 -20.5t20 -49.5t-20.5 -49t-48.5 -20q-29 0 -49.5 20t-20.5 49z" />
<glyph unicode="&#x452;" horiz-adv-x="1220" d="M123 1122v78h196v234h78v-234h549v-78h-549v-295q37 57 82 90t89 49.5t81 20.5t60 4q86 0 157.5 -30.5t122.5 -85t80 -127t29 -156.5v-701q0 -20 -2 -54t-11.5 -73.5t-29 -80.5t-54 -74t-89 -54.5t-132.5 -21.5h-53v74h53q82 0 130 28.5t73 71.5t31 91t6 85v699 q0 84 -28.5 147.5t-74 105.5t-100.5 62.5t-108 20.5t-108.5 -20.5t-100.5 -62.5t-74 -105.5t-29 -147.5v-582h-78v1122h-196z" />
<glyph unicode="&#x453;" horiz-adv-x="798" d="M123 0h78v596q0 55 6 117.5t45 107.5q25 31 57.5 46.5t66.5 21.5t66.5 7t57.5 1h196v74h-192q-33 0 -72 -1t-79 -9.5t-78.5 -27t-71.5 -50.5q-31 -33 -47.5 -69t-23.5 -72.5t-8 -74.5t-1 -71v-596zM481 1106l246 283h102l-270 -283h-78z" />
<glyph unicode="&#x454;" horiz-adv-x="778" d="M70 483q0 98 23.5 171t58 124t76.5 85t79 52q86 45 159 50.5t142 5.5h101v-74h-121q-37 0 -75 -1t-77 -10t-79 -28.5t-78 -54.5q-49 -45 -86 -115t-41 -162h557v-73h-557q2 -68 21.5 -119t41.5 -86q37 -57 82 -91t93 -52.5t95 -24.5t88 -6h136v-74h-119q-45 0 -96.5 3 t-103.5 18.5t-104.5 46t-101.5 84.5q-41 43 -63.5 89t-33.5 90t-14 83t-3 69z" />
<glyph unicode="&#x455;" horiz-adv-x="909" d="M76 735q0 49 18.5 92t51 75t77.5 50.5t101 18.5h436v-74h-430q-78 0 -123 -47t-45 -113q0 -55 26.5 -89t69.5 -54.5t96.5 -31.5t106.5 -23q74 -16 140.5 -35t118.5 -49.5t83 -79.5t31 -125q0 -47 -16.5 -91t-56.5 -80t-104.5 -57.5t-162.5 -21.5h-416v74h434q27 0 66.5 3 t77.5 19.5t65 49t27 92.5q0 57 -26 96t-69 63.5t-101 41t-126 30.5q-57 12 -119.5 27.5t-114 43t-84 73.5t-32.5 122z" />
<glyph unicode="&#x456;" horiz-adv-x="454" d="M166 1245q0 29 16.5 45.5t44.5 16.5q29 0 45.5 -16.5t16.5 -45.5t-16.5 -45t-45.5 -16t-45 16t-16 45zM188 0v971h78v-971h-78z" />
<glyph unicode="&#x457;" horiz-adv-x="454" d="M-4 1212q0 29 20.5 49.5t49.5 20.5t49 -20.5t20 -49.5t-20.5 -49t-48.5 -20q-29 0 -49.5 20t-20.5 49zM188 0v971h78v-971h-78zM319 1212q0 29 20.5 49.5t49.5 20.5t49.5 -20.5t20.5 -49.5t-20.5 -49t-49.5 -20t-49.5 20t-20.5 49z" />
<glyph unicode="&#x458;" horiz-adv-x="454" d="M-102 -393h45q47 0 92 15.5t78.5 46t54 76.5t20.5 110v1116h78v-1116q0 -74 -23.5 -133.5t-66.5 -101.5t-102.5 -64.5t-130.5 -22.5h-45v74zM166 1245q0 29 16.5 45.5t44.5 16.5q29 0 45.5 -16.5t16.5 -45.5t-16.5 -45t-45.5 -16t-45 16t-16 45z" />
<glyph unicode="&#x459;" horiz-adv-x="1529" d="M-20 0v74h135v295q0 55 3 111.5t16 111.5t39 109.5t73 103.5q55 61 119.5 95t126 49.5t114.5 18.5t88 3h103v-572q0 -35 3 -75.5t16 -82.5t42 -82t80 -69q35 -20 72 -28.5t77 -8.5q57 0 100.5 13.5t75 33t52 43t33.5 45.5q18 35 26 72t8 76q0 35 -8 68.5t-24 62.5 q-33 57 -99.5 95t-163.5 38q-41 0 -95 -13.5t-113 -54.5v82q55 33 107 46.5t97 13.5q78 0 151 -24.5t124 -71.5q41 -41 71.5 -101.5t30.5 -138.5q0 -47 -10 -93t-33 -87q-14 -27 -39.5 -57.5t-66.5 -57.5t-97.5 -45t-132.5 -18q-84 0 -153 28q-80 33 -122 86t-61.5 112.5 t-22.5 118t-3 101.5v471h-25q-72 0 -139.5 -10t-138.5 -47q-78 -41 -122 -98.5t-66.5 -122t-28.5 -130t-6 -120.5v-369h-213z" />
<glyph unicode="&#x45a;" horiz-adv-x="1607" d="M123 0v971h78v-398h596v398h77v-572q0 -35 3.5 -75.5t16.5 -82.5t42 -82t80 -69q35 -20 71.5 -28.5t77.5 -8.5q57 0 100.5 13.5t75 33t52 43t32.5 45.5q18 35 26.5 72t8.5 76q0 35 -8 68.5t-25 62.5q-33 57 -99 95t-163 38q-41 0 -95 -13.5t-114 -54.5v82 q55 33 107.5 46.5t97.5 13.5q78 0 150.5 -24.5t124.5 -71.5q41 -41 71.5 -101.5t30.5 -138.5q0 -47 -10 -93t-33 -87q-14 -27 -39.5 -57.5t-66.5 -57.5t-97.5 -45t-132.5 -18q-84 0 -153 28q-80 33 -122 86t-61.5 112.5t-22.5 118t-3 101.5v74h-596v-500h-78z" />
<glyph unicode="&#x45b;" horiz-adv-x="1097" d="M123 1122v78h196v234h78v-234h549v-78h-549v-295q37 57 82 90t89 49.5t81 20.5t60 4q86 0 157.5 -30.5t122.5 -85t80 -127t29 -156.5v-592h-78v582q0 84 -28.5 147.5t-74 105.5t-100.5 62.5t-108 20.5t-108.5 -20.5t-100.5 -62.5t-74 -105.5t-29 -147.5v-582h-78v1122 h-196z" />
<glyph unicode="&#x45c;" horiz-adv-x="909" d="M123 0h78v457h274q53 0 108.5 -18.5t88.5 -59.5q35 -45 42 -107.5t7 -107.5v-164h78v154q0 72 -8.5 142.5t-59.5 131.5l-18.5 18.5t-41 31t-64.5 29.5t-87 15q20 14 40 29.5t39 39t41 56.5t50 80l141 244h-94l-114 -205q-27 -47 -59 -92t-64 -78q-25 -25 -58.5 -45.5 t-81.5 -20.5h-159v441h-78v-971zM416 1094l246 282h102l-270 -282h-78z" />
<glyph unicode="&#x45e;" horiz-adv-x="1032" d="M123 465v506h78v-502q0 -49 2 -100.5t14 -100.5t41 -93t84 -79q35 -23 77 -33t83 -10q53 0 103 15.5t91 46.5q49 37 77 81t41 90t15 93t2 90v502h78v-928q0 -49 -1 -100.5t-13 -102.5t-40 -101t-81 -97q-66 -57 -146.5 -84t-164.5 -27q-51 0 -103.5 9t-98.5 21.5t-82 26 t-54 21.5l27 80q12 -6 43.5 -19.5t75.5 -28t95.5 -25.5t102.5 -11q94 0 178 43q70 37 108 82t55 95t19 105.5t2 112.5v113q-41 -66 -96 -104t-106 -54q-61 -18 -127 -18q-76 0 -146 24q-84 31 -131 84t-69.5 116.5t-27.5 131t-5 129.5zM201 1372h78q8 -23 25.5 -49.5t45 -50 t68.5 -39.5t98 -16t98 16t69 39.5t44 50.5t27 49h77q-12 -37 -34.5 -78t-59.5 -74.5t-91 -55t-130 -21.5t-130 21.5t-91 55t-59.5 74.5t-34.5 78z" />
<glyph unicode="&#x45f;" horiz-adv-x="1024" d="M123 0v971h78v-897h622v897h78v-971h-350v-442h-78v442h-350z" />
<glyph unicode="&#x490;" horiz-adv-x="864" d="M131 0v985q0 45 3 95t14.5 99.5t35 93.5t66.5 81q39 33 83 49t91 23.5t95 7.5h91h176v106h86v-184h-262h-77.5t-82.5 -6.5t-81 -22.5t-70 -49q-29 -29 -45 -65.5t-24.5 -76.5t-10.5 -79t-2 -72v-985h-86z" />
<glyph unicode="&#x491;" horiz-adv-x="651" d="M123 0v723q0 16 3 57t26.5 83t77 75t153.5 33h170v86h78v-160h-234q-74 0 -113.5 -19.5t-58 -50t-21.5 -70.5t-3 -81v-676h-78z" />
<glyph unicode="&#x2000;" horiz-adv-x="921" />
<glyph unicode="&#x2001;" horiz-adv-x="1843" />
<glyph unicode="&#x2002;" horiz-adv-x="921" />
<glyph unicode="&#x2003;" horiz-adv-x="1843" />
<glyph unicode="&#x2004;" horiz-adv-x="614" />
<glyph unicode="&#x2005;" horiz-adv-x="460" />
<glyph unicode="&#x2006;" horiz-adv-x="307" />
<glyph unicode="&#x2007;" horiz-adv-x="307" />
<glyph unicode="&#x2008;" horiz-adv-x="230" />
<glyph unicode="&#x2009;" horiz-adv-x="368" />
<glyph unicode="&#x200a;" horiz-adv-x="102" />
<glyph unicode="&#x2010;" horiz-adv-x="477" />
<glyph unicode="&#x2011;" horiz-adv-x="477" />
<glyph unicode="&#x2012;" horiz-adv-x="477" />
<glyph unicode="&#x2013;" horiz-adv-x="1318" d="M147 446v78h1024v-78h-1024z" />
<glyph unicode="&#x2014;" horiz-adv-x="2342" d="M147 446v78h2048v-78h-2048z" />
<glyph unicode="&#x2018;" horiz-adv-x="454" d="M156 1434h86l57 -316h-74z" />
<glyph unicode="&#x2019;" horiz-adv-x="454" d="M156 1118l57 316h86l-70 -316h-73z" />
<glyph unicode="&#x201a;" horiz-adv-x="454" d="M156 -168l57 315h86l-70 -315h-73z" />
<glyph unicode="&#x201c;" horiz-adv-x="681" d="M135 1434h86l58 -316h-74zM401 1434h86l58 -316h-74z" />
<glyph unicode="&#x201d;" horiz-adv-x="681" d="M137 1118l58 316h86l-70 -316h-74zM403 1118l58 316h86l-70 -316h-74z" />
<glyph unicode="&#x201e;" horiz-adv-x="681" d="M137 -168l58 315h86l-70 -315h-74zM403 -168l58 315h86l-70 -315h-74z" />
<glyph unicode="&#x2022;" horiz-adv-x="1024" d="M154 717q0 76 27.5 141.5t75.5 113.5t113.5 75.5t141.5 27.5t141.5 -27.5t113.5 -75.5t75.5 -113.5t27.5 -141.5t-27.5 -141.5t-75.5 -113.5t-113.5 -76t-141.5 -28t-141.5 28t-113.5 76t-75.5 113.5t-27.5 141.5z" />
<glyph unicode="&#x2026;" horiz-adv-x="2048" d="M264 66q0 33 22.5 55t55.5 22t55.5 -22.5t22.5 -54.5q0 -33 -22.5 -55.5t-55.5 -22.5t-55.5 22.5t-22.5 55.5zM946 66q0 33 22.5 55t55.5 22t55.5 -22.5t22.5 -54.5q0 -33 -22.5 -55.5t-55.5 -22.5t-55.5 22.5t-22.5 55.5zM1628 66q0 33 22.5 55t55.5 22t55.5 -22.5 t22.5 -54.5q0 -33 -22.5 -55.5t-55.5 -22.5t-55.5 22.5t-22.5 55.5z" />
<glyph unicode="&#x202f;" horiz-adv-x="368" />
<glyph unicode="&#x2039;" horiz-adv-x="569" d="M104 485l246 318h96l-245 -318l245 -317h-96z" />
<glyph unicode="&#x203a;" horiz-adv-x="569" d="M123 168l246 317l-246 318h96l246 -318l-246 -317h-96z" />
<glyph unicode="&#x205f;" horiz-adv-x="460" />
<glyph unicode="&#x20ac;" d="M45 598l25 57h110v72v32.5t2 33.5h-137l25 59h116q14 141 46 254t91.5 189.5t149.5 117.5t219 41q76 0 133.5 -12t99.5 -30.5t68.5 -42t42.5 -46.5l11 -147h-33q-14 113 -101.5 165t-210.5 52q-111 0 -186.5 -39t-124.5 -109.5t-75.5 -170t-39.5 -222.5h658l-25 -59h-637 q-2 -14 -2 -33v-33v-72h582l-25 -57h-551q18 -270 126 -415.5t300 -145.5q53 0 105.5 11t95.5 38t72 70t39 106h33l-11 -143q-41 -57 -120.5 -99.5t-223.5 -42.5q-231 0 -357 156t-149 465h-141z" />
<glyph unicode="&#x2122;" horiz-adv-x="1859" d="M174 1360v74h655v-74h-288v-770h-78v770h-289zM770 590l166 764q10 47 22.5 76.5t51.5 29.5q31 0 45 -18.5t26 -59.5l172 -555q14 -45 21.5 -73.5t15.5 -57.5q4 -14 8.5 -27.5t8.5 -13.5t8 13.5t8 27.5q8 29 15.5 57.5t21.5 73.5l172 555q14 47 28.5 62.5t43.5 15.5 q20 0 33.5 -9t20.5 -24.5t11 -35t8 -37.5l166 -764h-84l-149 747q-2 6 -2 15.5t-4 17.5q0 2 -2 4l-5 -10l-202 -662q-6 -25 -13.5 -48t-16.5 -41.5t-23.5 -31t-34.5 -12.5t-35 13.5t-25 34t-17 44t-13 41.5l-201 662l-4 10l-2 -4q-4 -10 -5 -22.5t-4 -22.5l-147 -735h-84z " />
<glyph unicode="&#x25fc;" horiz-adv-x="972" d="M0 0v973h973v-973h-973z" />
</font>
</defs>
</svg>
