<svg xmlns="http://www.w3.org/2000/svg" viewBox="0 0 40 44"><title>shopping-bag@1x</title><g id="Layer_2" data-name="Layer 2"><g id="E-Commerce"><g id="Shopping_Bag_2x.png" data-name="Shopping Bag@2x.png"><path d="M40,42.87h0l-4-30h0A1,1,0,0,0,35,12H28V8A8,8,0,0,0,12,8v4H5a1,1,0,0,0-1,.87H4l-4,30H0A.82.82,0,0,0,0,43a1,1,0,0,0,1,1H39a1,1,0,0,0,1-1A.82.82,0,0,0,40,42.87ZM14,8A6,6,0,0,1,26,8v4H14ZM5.88,14H12v4.28a2,2,0,1,0,2,0V14H26v4.28a2,2,0,1,0,2,0V14h6.13l3.2,24H2.68ZM2.14,42l.27-2H37.59l.27,2Z"/></g></g></g></svg>