<?xml version="1.0" encoding="utf-8"?>
<!-- Generator: Adobe Illustrator 17.1.0, SVG Export Plug-In . SVG Version: 6.00 Build 0)  -->
<!DOCTYPE svg PUBLIC "-//W3C//DTD SVG 1.1//EN" "http://www.w3.org/Graphics/SVG/1.1/DTD/svg11.dtd">
<svg version="1.1" id="Default" xmlns="http://www.w3.org/2000/svg" xmlns:xlink="http://www.w3.org/1999/xlink" x="0px" y="0px"
	 viewBox="0 0 612 792" enable-background="new 0 0 612 792" xml:space="preserve">
<polygon points="406.4,4.3 563.1,55 563.1,74 502.5,55.4 406.4,83.8 406.4,63.4 477.8,46.4 477.7,45.9 406.4,24.9 "/>
<path d="M421.4,100c0.3,9.1,2.1,15.6,5.4,19.5c3.3,3.9,10.8,5.8,22.3,5.8c21.9,0,43.8,0,65.7,0c0,6.9,0,13.8,0,20.7
	c-36.1,0-72.2,0-108.3,0c0-6.9,0-13.8,0-20.7c5.1,0,10.2,0,15.3,0c0-0.2,0-0.3,0-0.5c-11.7-5.8-17.6-13.7-17.6-23.5
	c0.1-0.4,0.2-0.9,0.3-1.3C410,100,415.7,100,421.4,100z"/>
<rect x="351.1" y="171.4" width="163.7" height="20.7"/>
<polygon points="406.4,307.4 514.7,333.9 514.7,349.3 448.4,361.7 448.4,362.2 514.7,374.5 514.7,389.3 406.4,415.8 406.4,395.6 
	478.6,380.6 478.6,380.1 406.4,366.9 406.4,356.5 478.9,342.4 478.9,341.9 406.4,327.6 "/>
<path d="M307.4,681.9c-6.2-0.4-13.2-0.5-21-0.5c-72.9,0-145.9,0-218.8,0c0-13.8,0-27.5,0-41.3c79.9,0,159.9,0,239.8,0
	c52.5,0,78.8,23.7,78.8,71c0,52-26.1,78-78.3,78c-0.2,0-0.3,0-0.5,0c-79.9,0-159.9,0-239.8,0c0-13.8,0-27.5,0-41.3
	c73.8,0,147.5,0,221.3,0c6.8,0,12.9-0.2,18.5-0.5c14-0.9,24.3-2.8,30.8-5.9c9.1-4.3,13.6-13.6,13.6-27.9c0-14.3-4.8-23.2-14.4-26.8
	C330.8,684.2,320.8,682.6,307.4,681.9z"/>
<line x1="478.3" y1="688.2" x2="477.8" y2="688.2"/>
<path d="M146.3,339.8c6.2,0.4,13.2,0.5,20.9,0.5c72.9,0,145.9,0,218.8,0c0,13.8,0,27.5,0,41.3c-79.9,0-159.9,0-239.8,0
	c-52.5,0-78.8-23.7-78.8-71c0-52,26.1-78,78.3-78c0.2,0,0.3,0,0.5,0c79.9,0,159.9,0,239.8,0c0,13.8,0,27.5,0,41.3
	c-73.8,0-147.5,0-221.3,0c-6.8,0-12.9,0.2-18.5,0.5c-14,0.9-24.3,2.8-30.8,5.9c-9.1,4.3-13.6,13.6-13.6,27.9
	c0,14.3,4.8,23.2,14.4,26.8C122.9,337.4,132.9,339.1,146.3,339.8z"/>
<path d="M477.8,539.2c51.8,0,78.1,23.7,78.8,71c0,52-26.1,78-78.3,78c-0.2-14.4-0.3-28.8-0.5-43.2c13.8-0.9,24-2.8,30.4-5.8
	c9-4.2,13.5-13.4,13.5-27.5c0-14.1-4.7-22.9-14.2-26.5c-6.5-2.4-16.3-4-29.6-4.8c-103.9,0-207.8,0-311.7,0c0-13.8,0-27.5,0-41.3
	C270,539.2,373.9,539.2,477.8,539.2z"/>
<rect x="166.1" y="445.2" width="215.4" height="41.3"/>
<path d="M100.8,488.8c-5.8,0-10.9-2.1-15.2-6.4C81.2,478.1,79,473,79,467c0-6,2.2-11.1,6.5-15.4c4.4-4.3,9.4-6.4,15.2-6.4
	c6,0,11.1,2.1,15.4,6.4c4.3,4.3,6.4,9.4,6.4,15.4c0,6.1-2.1,11.3-6.4,15.5C111.9,486.7,106.8,488.8,100.8,488.8z"/>
<path d="M100.8,582.8c-6,0-11.1-2.2-15.4-6.5c-4.3-4.3-6.4-9.5-6.4-15.6c0-5.9,2.2-11,6.5-15.2c4.4-4.2,9.4-6.3,15.2-6.3
	c6,0,11.1,2.1,15.4,6.3c4.3,4.2,6.4,9.3,6.4,15.2c0,6.1-2.1,11.3-6.4,15.6C111.9,580.6,106.8,582.8,100.8,582.8z"/>
<path d="M456.1,219.8c-21.2,0-35.1,3.2-41.9,9.6c-6.8,6.4-10.1,14.1-10.1,23c0,23.6,19.6,35.4,58.9,35.4c36,0,54-11.4,54-34.2
	c0-21.2-12.7-32.1-38-32.7c0,6.1,0,12.3,0,18.4c7.2,0.1,12.4,1,15.7,2.7c3.3,1.7,5,4.9,5,9.6c0,6.2-3,10.1-9,11.7
	c-6,1.7-14.9,2.5-26.7,2.5c0-15.4,0-30.7,0-46.1C461.4,219.8,458.7,219.8,456.1,219.8z M447.9,265.9c-10.2,0-17.7-0.9-22.6-2.6
	c-4.9-1.7-7.3-5.3-7.3-10.7c0-4.6,2.3-7.8,7-9.5c4.6-1.7,12.3-2.6,23-2.6C447.9,249,447.9,257.5,447.9,265.9z"/>
<path d="M456.1,441.1c-21.2,0-35.1,3.2-41.9,9.6c-6.8,6.4-10.1,14.1-10.1,23c0,23.6,19.6,35.4,58.9,35.4c36,0,54-11.4,54-34.2
	c0-21.2-12.7-32.1-38-32.7c0,6.1,0,12.3,0,18.4c7.2,0.1,12.4,1,15.7,2.7c3.3,1.7,5,4.9,5,9.6c0,6.2-3,10.1-9,11.7
	c-6,1.7-14.9,2.5-26.7,2.5c0-15.4,0-30.7,0-46.1C461.4,441.1,458.7,441.1,456.1,441.1z M447.9,487.2c-10.2,0-17.7-0.9-22.6-2.6
	c-4.9-1.7-7.3-5.3-7.3-10.7c0-4.6,2.3-7.8,7-9.5c4.6-1.7,12.3-2.6,23-2.6C447.9,470.3,447.9,478.8,447.9,487.2z"/>
</svg>
